<?xml version="1.0" encoding="UTF-8"?>
<svg version="1.1" xmlns="http://www.w3.org/2000/svg" width="1102" height="743">
<path d="M0 0 C363.66 0 727.32 0 1102 0 C1102 245.19 1102 490.38 1102 743 C738.34 743 374.68 743 0 743 C0 497.81 0 252.62 0 0 Z " fill="#F7F7F7" transform="translate(0,0)"/>
<path d="M0 0 C0.78922852 0.09651855 1.57845703 0.19303711 2.39160156 0.29248047 C58.01554867 7.2827784 112.77348966 32.44780579 154.52148438 69.68457031 C155.82127068 70.84098521 157.13606286 71.98048737 158.453125 73.1171875 C170.91137837 84.00756544 182.95808519 95.82737058 193 109 C193.78117188 109.97582031 194.56234375 110.95164062 195.3671875 111.95703125 C233.36964302 159.66525721 257 221.87337044 257 283 C225.98 283 194.96 283 163 283 C163 306.76 163 330.52 163 355 C157.39 355 151.78 355 146 355 C146.61163034 350.71858764 147.23463693 346.61719008 148.12109375 342.41015625 C159.03687844 289.86371299 153.69215178 237.15737278 124.37255859 191.07910156 C112.60451043 173.25329256 98.71106199 157.28594876 82 144 C80.54980469 142.80697266 80.54980469 142.80697266 79.0703125 141.58984375 C56.63180111 123.57622964 29.70745753 112.16553603 1.8125 105.75 C1.1613623 105.59877686 0.51022461 105.44755371 -0.16064453 105.29174805 C-13.80486277 102.35281464 -27.40865409 101.6207858 -41.3125 101.6875 C-42.12526398 101.68965515 -42.93802795 101.6918103 -43.77542114 101.69403076 C-55.7584808 101.74495674 -67.30982024 102.153516 -79 105 C-79.83885742 105.19335938 -80.67771484 105.38671875 -81.54199219 105.5859375 C-117.31076157 113.96863644 -150.41507323 131.44349374 -176 158 C-177.20849609 159.2065625 -177.20849609 159.2065625 -178.44140625 160.4375 C-205.88326561 187.92125533 -224.22274934 224.56636536 -230 263 C-230.16846436 264.0923999 -230.33692871 265.1847998 -230.51049805 266.31030273 C-237.9330628 317.48903659 -224.69657774 368.99620473 -194.31640625 410.7421875 C-184.47889527 423.83935719 -173.12352331 436.17538433 -160 446 C-158.88505791 446.86542342 -157.77049577 447.73133648 -156.65625 448.59765625 C-133.31179945 466.4899907 -105.22707618 479.89835759 -76.05371094 484.66015625 C-74.61990446 484.89741952 -73.188352 485.14853689 -71.75878906 485.41015625 C-39.97438237 491.21051653 -7.55099603 488.33995241 23 478 C23.76038574 477.74379883 24.52077148 477.48759766 25.30419922 477.22363281 C66.04738527 463.1572177 102.59658014 434.63358106 124.50390625 397.38671875 C124.99761719 396.59910156 125.49132812 395.81148438 126 395 C126.33 395 126.66 395 127 395 C127 412.82 127 430.64 127 449 C138.88 449 150.76 449 163 449 C163.40108809 464.6112399 163.40108809 464.6112399 163.48828125 471.31054688 C163.54787181 475.86732676 163.61803664 480.42208138 163.75439453 484.97729492 C163.86375221 488.65390566 163.92297965 492.32834391 163.94877243 496.00645638 C163.96712919 497.40328227 164.00298129 498.8000004 164.05730057 500.19589043 C164.46393803 511.08742942 164.46393803 511.08742942 160.85250854 515.80560303 C158.337333 518.09399737 155.79264375 520.06513255 153 522 C151.61608764 523.10411842 150.23713977 524.21454476 148.8671875 525.3359375 C147.54092702 526.3548018 146.21011311 527.36776403 144.875 528.375 C144.14909668 528.92462402 143.42319336 529.47424805 142.67529297 530.04052734 C100.10381967 562.04062288 50.22558507 584.03737659 -3 590 C-4.20668335 590.1403064 -4.20668335 590.1403064 -5.43774414 590.28344727 C-34.62164984 593.20367777 -65.15951404 592.21504001 -94 587 C-94.98436035 586.8340332 -95.9687207 586.66806641 -96.98291016 586.49707031 C-147.36152094 577.84593612 -194.34178934 552.87469883 -233 520 C-233.74636719 519.36578125 -234.49273437 518.7315625 -235.26171875 518.078125 C-247.77944922 507.11182801 -259.91142982 495.2536118 -270 482 C-271.01049838 480.71648619 -272.02232559 479.43401794 -273.03515625 478.15234375 C-310.88242175 429.91080114 -335.66181473 368.28817329 -336.23828125 306.48828125 C-336.2480751 305.60974991 -336.25786896 304.73121857 -336.26795959 303.82606506 C-336.73001737 251.52095279 -326.60211573 202.46083006 -302 156 C-301.61585938 155.27425781 -301.23171875 154.54851562 -300.8359375 153.80078125 C-282.92048368 120.22375329 -257.88247977 88.69449576 -228 65 C-226.89003773 64.0790954 -225.78205432 63.15580189 -224.67578125 62.23046875 C-186.05979949 30.19488416 -137.34733597 9.20930274 -88 1 C-87.12085938 0.84901855 -86.24171875 0.69803711 -85.3359375 0.54248047 C-57.62379625 -4.03179926 -27.82047167 -3.60593943 0 0 Z " fill="#A21B1F" transform="translate(423,50)"/>
<path d="M0 0 C0.75611572 -0.00701431 1.51223145 -0.01402863 2.29125977 -0.02125549 C4.73459839 -0.03874945 7.17769468 -0.04511297 9.62109375 -0.046875 C10.8718721 -0.04788712 10.8718721 -0.04788712 12.1479187 -0.04891968 C25.00656851 -0.03237177 37.44673176 0.4924606 50.05859375 3.203125 C50.8798877 3.37473145 51.70118164 3.54633789 52.54736328 3.72314453 C106.10884618 15.21601114 149.50678674 47.43347398 179.19824219 92.95019531 C189.08151153 108.49430437 196.28168105 126.18747921 200.54833984 144.07226562 C201.06550736 146.23199679 201.61594494 148.38120142 202.171875 150.53125 C210.90375229 184.92813571 207.73633676 220.33102447 198.05859375 254.203125 C203.66859375 254.203125 209.27859375 254.203125 215.05859375 254.203125 C215.05859375 254.533125 215.05859375 254.863125 215.05859375 255.203125 C212.43351568 255.23105136 209.80875577 255.25038774 207.18359375 255.265625 C206.12205078 255.27819336 206.12205078 255.27819336 205.0390625 255.29101562 C196.36400417 255.32808852 187.71405145 254.72646454 179.05859375 254.203125 C179.11096191 255.33105469 179.16333008 256.45898438 179.21728516 257.62109375 C179.40096718 261.88457991 179.51402089 266.1477344 179.60791016 270.4140625 C179.65760488 272.24539336 179.72539326 274.07634033 179.81298828 275.90625 C180.4772476 290.1604735 177.98092929 299.02532658 169.05859375 310.203125 C168.57949051 310.8131839 168.10038727 311.4232428 167.60676575 312.05178833 C155.73606414 327.05717628 141.81864474 341.30606204 126.05859375 352.203125 C125.03507812 352.92113281 124.0115625 353.63914062 122.95703125 354.37890625 C98.72648475 370.6579011 71.86507062 381.42702749 43.05859375 386.203125 C41.82625 386.42613281 40.59390625 386.64914062 39.32421875 386.87890625 C19.09379033 390.01590306 -1.89203324 389.01316921 -21.94140625 385.203125 C-22.68970703 385.06922363 -23.43800781 384.93532227 -24.20898438 384.79736328 C-43.37099997 381.31527895 -61.93888753 374.68259395 -78.94140625 365.203125 C-79.63959473 364.81898438 -80.3377832 364.43484375 -81.05712891 364.0390625 C-91.01479026 358.52062671 -100.16371385 352.44391937 -108.94140625 345.203125 C-109.49892578 344.75243652 -110.05644531 344.30174805 -110.63085938 343.83740234 C-150.64351419 311.41452112 -174.8791638 264.36085507 -180.55029297 213.40820312 C-182.48427662 194.06949006 -181.65319817 174.2669529 -177.94140625 155.203125 C-177.80750488 154.50445312 -177.67360352 153.80578125 -177.53564453 153.0859375 C-173.88783518 134.90437139 -166.67786912 117.48304635 -157.94140625 101.203125 C-157.4515625 100.23503906 -156.96171875 99.26695312 -156.45703125 98.26953125 C-150.22555046 86.20916534 -141.68782287 75.52193112 -132.94140625 65.203125 C-132.33554688 64.47351563 -131.7296875 63.74390625 -131.10546875 62.9921875 C-127.69781002 58.96775796 -124.10289862 55.43188472 -120.07421875 52.03125 C-118.62101469 50.78564652 -117.1996604 49.50213442 -115.80859375 48.1875 C-88.0116376 21.99240234 -51.31082364 6.89244484 -13.94140625 1.203125 C-13.04164063 1.03111572 -12.141875 0.85910645 -11.21484375 0.68188477 C-7.46495872 0.13344171 -3.78089144 0.02335238 0 0 Z " fill="#C9C9CB" transform="translate(370.94140625,150.796875)"/>
<path d="M0 0 C2.35410931 -0.00217682 4.70774129 -0.02036422 7.06176758 -0.03930664 C43.53251279 -0.17610631 76.5726141 12.43942046 102.7512207 37.87280273 C109.2577355 44.36769875 117.74167216 52.99414297 119.6887207 62.18530273 C118.96620117 62.5966748 118.24368164 63.00804687 117.49926758 63.43188477 C104.45139175 70.86455819 91.41322232 78.31254997 78.4387207 85.87280273 C76.98755859 86.71705811 76.98755859 86.71705811 75.50708008 87.57836914 C74.13519531 88.37960205 74.13519531 88.37960205 72.7355957 89.19702148 C71.87643555 89.69766113 71.01727539 90.19830078 70.13208008 90.71411133 C67.16198833 92.50245794 64.29287165 94.42524726 61.45141602 96.41113281 C59.6887207 97.18530273 59.6887207 97.18530273 57.5769043 96.94042969 C54.80112295 95.83033249 53.77921814 93.97659913 52.0637207 91.56030273 C44.05156906 81.17856835 31.62136286 74.37734491 18.6887207 72.18530273 C14.74730224 71.86418429 10.82933081 71.81525961 6.8762207 71.81030273 C5.35158203 71.77356445 5.35158203 71.77356445 3.79614258 71.73608398 C-8.57337655 71.68878181 -18.07641259 76.08725093 -27.3112793 84.18530273 C-40.80663567 97.84409768 -44.91087609 115.78082283 -44.8112793 134.43530273 C-44.80483398 135.70438477 -44.79838867 136.9734668 -44.79174805 138.28100586 C-44.45104473 155.84515857 -39.59717232 170.60968111 -27.3737793 183.68530273 C-20.94887434 189.64590792 -13.61249844 192.71827375 -5.3112793 195.18530273 C-4.3212793 195.51530273 -3.3312793 195.84530273 -2.3112793 196.18530273 C14.58448208 197.27247725 31.31105531 195.02597155 44.8762207 183.99780273 C49.6986302 179.54785576 53.7517527 174.05923874 56.6887207 168.18530273 C60.23758568 168.86886133 62.99579925 170.31712903 66.1418457 172.07202148 C67.22481934 172.6741748 68.30779297 173.27632812 69.42358398 173.89672852 C70.59543573 174.5551717 71.76714467 175.2138691 72.9387207 175.87280273 C74.14550897 176.5472627 75.35237848 177.22157731 76.55932617 177.89575195 C86.61536048 183.52681127 96.57639295 189.31600161 106.5090332 195.16186523 C111.1939011 197.91346176 115.92454688 200.57373192 120.6887207 203.18530273 C119.32776444 208.0936696 117.11562279 211.8726804 114.1262207 215.93530273 C113.67859375 216.54801025 113.2309668 217.16071777 112.76977539 217.79199219 C97.74481409 238.08099912 78.20019793 250.63818925 54.6887207 259.18530273 C53.88176758 259.49081055 53.07481445 259.79631836 52.2434082 260.11108398 C36.41799593 265.80472862 20.04393562 266.38628451 3.42700195 266.42553711 C0.95660579 266.43523254 -1.51295228 266.46636023 -3.9831543 266.49780273 C-14.46729523 266.56674077 -24.07941189 265.51897603 -34.3112793 263.18530273 C-35.42067871 262.94166992 -36.53007813 262.69803711 -37.6730957 262.44702148 C-67.00717576 255.83709572 -94.39607794 237.79406807 -110.8737793 212.49780273 C-131.47845351 179.75366902 -137.93201863 139.45325567 -129.85473633 101.53735352 C-121.92895499 67.23502765 -103.65748229 38.68533538 -74.1003418 19.05249023 C-51.30550871 5.24564359 -26.33607402 -0.00271534 0 0 Z " fill="#151314" transform="translate(913.311279296875,408.814697265625)"/>
<path d="M0 0 C28.05 0 56.1 0 85 0 C85 24.09 85 48.18 85 73 C107.44 73 129.88 73 153 73 C153 91.81 153 110.62 153 130 C130.56 130 108.12 130 85 130 C85.06181375 148.36929155 85.06181375 148.36929155 85.16015625 166.73828125 C85.20839688 174.23681834 85.25247721 181.73520964 85.27099609 189.23388672 C85.28620646 195.28356327 85.32073024 201.33285686 85.36830902 207.38236237 C85.38307761 209.68343008 85.3910384 211.98455247 85.39188385 214.28566742 C84.90657311 233.18209235 84.90657311 233.18209235 92.3125 250.0625 C99.11603599 254.96737478 104.73536781 255.89981794 113 255 C120.24947422 253.72345078 127.44334636 252.07515248 134.26953125 249.30078125 C138.85828225 247.70072462 138.85828225 247.70072462 142 249 C143.00914836 251.36529096 143.68580708 253.46425045 144.3125 255.9375 C144.51343262 256.67242676 144.71436523 257.40735352 144.92138672 258.16455078 C145.37382299 259.8291237 145.81792299 261.49597632 146.25537109 263.16455078 C147.07623522 266.29029373 147.92143683 269.40888195 148.76953125 272.52734375 C150.25440844 277.99812847 151.72565503 283.47230347 153.17675781 288.95214844 C153.72488265 290.98144574 154.29194263 293.0057245 154.87792969 295.02441406 C156.25421107 299.79864221 157.40768943 303.97183041 157 309 C147.25300165 313.79745876 137.52985734 318.17420456 127 321 C126.26620117 321.19754883 125.53240234 321.39509766 124.77636719 321.59863281 C112.14898835 324.80933963 99.58533607 325.41370125 86.625 325.5 C85.86990143 325.51044342 85.11480286 325.52088684 84.33682251 325.53164673 C61.02034374 325.78354036 39.5388864 318.52843912 22.34375 302.3671875 C6.97790339 286.84768243 -0.19304113 267.25535024 -0.24884033 245.57429504 C-0.24164978 244.44859604 -0.23445923 243.32289703 -0.22705078 242.16308594 C-0.22734283 240.9421373 -0.22763489 239.72118866 -0.22793579 238.46324158 C-0.22679157 235.15610518 -0.21684931 231.84922698 -0.20278788 228.54213619 C-0.19017746 225.07084369 -0.18910197 221.59954674 -0.18673706 218.12823486 C-0.18055229 211.5731065 -0.1641827 205.01804585 -0.14403808 198.46294713 C-0.12158488 190.99244571 -0.1106621 183.52194084 -0.10064721 176.05141401 C-0.07981334 160.70089693 -0.04317528 145.35047298 0 130 C-11.88 130 -23.76 130 -36 130 C-36 111.19 -36 92.38 -36 73 C-24.12 73 -12.24 73 0 73 C0 48.91 0 24.82 0 0 Z " fill="#151314" transform="translate(605,351)"/>
<path d="M0 0 C65.67 0 131.34 0 199 0 C199 40.26 199 80.52 199 122 C133.33 122 67.66 122 0 122 C0 81.74 0 41.48 0 0 Z " fill="#FCFCFC" transform="translate(274,268)"/>
<path d="M0 0 C0.90911092 -0.00679667 1.81822183 -0.01359334 2.75488156 -0.02059597 C5.80799127 -0.03962036 8.86070162 -0.03712774 11.91386414 -0.03465271 C14.10011819 -0.04362701 16.28636747 -0.05383448 18.47261047 -0.06518555 C24.41689425 -0.09172433 30.36104854 -0.09872068 36.30538583 -0.10063291 C41.26565587 -0.10347937 46.22589566 -0.11451341 51.18615407 -0.12514919 C62.21984879 -0.14819378 73.25348296 -0.15715441 84.28720007 -0.15513314 C84.94919941 -0.15501327 85.61119874 -0.1548934 86.29325867 -0.1547699 C86.95606758 -0.15464726 87.6188765 -0.15452461 88.30177053 -0.15439826 C99.04105665 -0.15317917 109.78002706 -0.1818799 120.51922188 -0.224185 C131.5494588 -0.26729323 142.57953417 -0.28744538 153.60985631 -0.28540367 C159.80124897 -0.28463837 165.99228446 -0.29321076 172.18360329 -0.32493782 C178.00730744 -0.3539653 183.83031262 -0.35423028 189.65404129 -0.33238792 C191.79097831 -0.32924828 193.92795872 -0.33635193 196.06482124 -0.3544693 C198.98381592 -0.37761408 201.90039362 -0.36371343 204.81933594 -0.34057617 C206.08618059 -0.36372221 206.08618059 -0.36372221 207.37861806 -0.38733584 C212.83041732 -0.29191758 215.70209162 1.01332403 219.69985932 4.72408921 C223.02538505 8.70690232 223.35313309 11.90218985 223.36756897 17.02989197 C223.37210008 17.69469531 223.3766312 18.35949865 223.38129961 19.04444754 C223.39395343 21.27067436 223.39232265 23.49665686 223.39067078 25.72291565 C223.39665542 27.31966466 223.40346082 28.91641077 223.411026 30.51315308 C223.42869964 34.84997309 223.43338195 39.18671418 223.43465757 43.52356672 C223.43655683 47.14433362 223.44391466 50.76508214 223.45100176 54.38584197 C223.46728845 62.92871063 223.47217046 71.47153715 223.4707489 80.01441956 C223.46954732 88.82587946 223.4906517 97.63709448 223.52223623 106.44849241 C223.54839038 114.01464565 223.55911656 121.58071888 223.55783808 129.14691699 C223.5573282 133.6653934 223.56302579 138.18365221 223.58419418 142.70208359 C223.60356217 146.95226937 223.60371107 151.20202964 223.58916092 155.45223045 C223.58706993 157.01067539 223.59179106 158.56914687 223.60388184 160.12754631 C223.61934063 162.25833576 223.61002432 164.38765904 223.59461975 166.51841736 C223.59570929 167.70970938 223.59679882 168.9010014 223.59792137 170.12839317 C222.8212188 175.23498662 220.30606795 178.31286496 216.53764343 181.71363831 C212.16470661 184.74105611 208.16556273 184.53841141 203.04862976 184.5146637 C202.22889175 184.51480972 201.40915375 184.51495575 200.5645752 184.5151062 C197.85374815 184.51440927 195.14298973 184.50662708 192.43217468 184.49879456 C190.553162 184.4969296 188.67414884 184.49550606 186.7951355 184.49450684 C181.84839029 184.49068778 176.90167441 184.48086269 171.9549408 184.46980286 C166.90764259 184.45957561 161.86033964 184.4550064 156.81303406 184.44996643 C146.90872429 184.4392399 137.0044363 184.42217078 127.10014343 184.40113831 C127.37726538 186.78536865 127.66526397 189.16744964 127.95951843 191.54957581 C128.03605652 192.21787415 128.1125946 192.88617249 128.19145203 193.57472229 C129.10312789 200.81059623 131.50895643 207.22712782 136.78764343 212.40113831 C140.53948876 214.66640341 143.62969504 215.35142497 147.92826843 215.94410706 C150.10014343 216.40113831 150.10014343 216.40113831 152.10014343 218.40113831 C152.27178074 220.96406147 152.33278901 223.40459688 152.28764343 225.96363831 C152.28667664 227.01067932 152.28667664 227.01067932 152.28569031 228.07887268 C152.24045502 233.26082672 152.24045502 233.26082672 151.10014343 234.40113831 C148.12252974 234.50175101 145.16807176 234.53728723 142.18998718 234.53053284 C140.78766342 234.53316132 140.78766342 234.53316132 139.35700989 234.5358429 C136.25053581 234.54026304 133.14411814 234.53732285 130.03764343 234.53395081 C127.88912444 234.5346238 125.74060552 234.53559378 123.59208679 234.53684998 C119.08272072 234.53832717 114.57337441 234.5361717 110.06401062 234.5315094 C104.26965766 234.5258121 98.47535101 234.52909099 92.68099976 234.53508186 C88.24251453 234.5386869 83.80404036 234.53754916 79.36555481 234.53495407 C77.22840876 234.53428464 75.09126172 234.53511378 72.95411682 234.53743362 C69.97281717 234.5399592 66.99159363 234.5361209 64.01029968 234.53053284 C62.67154282 234.53356918 62.67154282 234.53356918 61.30574036 234.53666687 C55.21440576 234.51540063 55.21440576 234.51540063 54.10014343 233.40113831 C54.02694722 230.70458977 54.00771806 228.03422373 54.03764343 225.33863831 C54.04215515 224.58002502 54.04666687 223.82141174 54.05131531 223.03981018 C54.06313663 221.16021959 54.08107266 219.28066932 54.10014343 217.40113831 C55.38598328 217.07242737 55.38598328 217.07242737 56.69779968 216.73707581 C66.65389369 214.0952321 66.65389369 214.0952321 74.10014343 207.40113831 C76.71439559 202.02631391 77.25864787 196.46512474 77.67045593 190.56129456 C77.75311707 189.403797 77.8357782 188.24629944 77.92094421 187.0537262 C77.98007996 186.17837219 78.0392157 185.30301819 78.10014343 184.40113831 C77.078078 184.41002075 76.05601257 184.4189032 75.00297546 184.42805481 C65.35173942 184.50928547 55.70057312 184.56917312 46.04907227 184.60838699 C41.08759772 184.62922533 36.12640006 184.65747426 31.16508484 184.70289612 C26.37345168 184.74648793 21.58208416 184.77030363 16.79026794 184.78064728 C14.96588461 184.78801475 13.14151515 184.8024017 11.31724548 184.82405853 C8.75367785 184.85327031 6.19119556 184.85708698 3.62748718 184.85523987 C2.50646355 184.87681152 2.50646355 184.87681152 1.36279297 184.89881897 C-4.11674184 184.85634467 -8.31499534 183.4302418 -12.89985657 180.40113831 C-17.15861159 175.81478674 -18.02464633 173.24136859 -18.05375671 167.0643158 C-18.05813897 166.40671599 -18.06252122 165.74911618 -18.06703627 165.07158911 C-18.08044072 162.85770553 -18.08660687 160.64386177 -18.09272766 158.4299469 C-18.10062752 156.84659138 -18.1088964 155.26323767 -18.11750793 153.67988586 C-18.14374795 148.46980005 -18.15904048 143.25970613 -18.17329407 138.04957581 C-18.17865349 136.25618611 -18.184031 134.46279648 -18.18942642 132.66940689 C-18.21106067 125.20789219 -18.22979624 117.74637967 -18.24104881 110.28484154 C-18.25727901 99.59273398 -18.29042784 88.90099037 -18.34744966 78.20902002 C-18.38617428 70.69129475 -18.40568466 63.17366671 -18.41096938 55.65584433 C-18.41462024 51.16626012 -18.4266125 46.6770639 -18.45907211 42.18758774 C-18.48919619 37.96036166 -18.49544933 33.73375742 -18.48368835 29.50644684 C-18.48346796 27.95850174 -18.49174486 26.41052743 -18.50934219 24.86268234 C-18.66063447 10.78374239 -18.66063447 10.78374239 -14.36371803 4.89048195 C-13.88064375 4.39899855 -13.39756947 3.90751514 -12.89985657 3.40113831 C-12.36744952 2.84834418 -11.83504248 2.29555006 -11.28650188 1.7260046 C-7.6668575 -0.28331987 -4.03492526 -0.02202099 0 0 Z M3.10014343 20.40113831 C3.10014343 60.66113831 3.10014343 100.92113831 3.10014343 142.40113831 C68.77014343 142.40113831 134.44014343 142.40113831 202.10014343 142.40113831 C202.10014343 102.14113831 202.10014343 61.88113831 202.10014343 20.40113831 C136.43014343 20.40113831 70.76014343 20.40113831 3.10014343 20.40113831 Z " fill="#151415" transform="translate(270.8998565673828,247.59886169433594)"/>
<path d="M0 0 C0.33 0 0.66 0 1 0 C1 17.82 1 35.64 1 54 C12.88 54 24.76 54 37 54 C37.40108809 69.6112399 37.40108809 69.6112399 37.48828125 76.31054688 C37.54787181 80.86732676 37.61803664 85.42208138 37.75439453 89.97729492 C37.86375221 93.65390566 37.92297965 97.32834391 37.94877243 101.00645638 C37.96712919 102.40328227 38.00298129 103.8000004 38.05730057 105.19589043 C38.46393803 116.08742942 38.46393803 116.08742942 34.85250854 120.80560303 C32.337333 123.09399737 29.79264375 125.06513255 27 127 C25.61608764 128.10411842 24.23713977 129.21454476 22.8671875 130.3359375 C21.54092702 131.3548018 20.21011311 132.36776403 18.875 133.375 C18.14909668 133.92462402 17.42319336 134.47424805 16.67529297 135.04052734 C-23.63869519 165.34371801 -69.91097622 186.12555085 -119.9375 193.875 C-120.71125977 193.99528564 -121.48501953 194.11557129 -122.28222656 194.23950195 C-127.87141624 195.02415222 -133.36164977 195.11932237 -139 195 C-142.37890625 188.2421875 -145.7578125 181.484375 -149.13671875 174.7265625 C-149.47815918 174.04376221 -149.81959961 173.36096191 -150.17138672 172.6574707 C-150.84645207 171.30717781 -151.5212586 169.95675549 -152.19580078 168.60620117 C-153.63891483 165.71745642 -155.08557489 162.83080003 -156.54296875 159.94921875 C-156.98253906 159.07910156 -157.42210937 158.20898438 -157.875 157.3125 C-158.42800781 156.22388672 -158.42800781 156.22388672 -158.9921875 155.11328125 C-160.10527919 152.77924014 -161.04404964 150.40250165 -162 148 C-166.85607408 137.07007474 -171.98558469 126.1944457 -177.96923828 115.83447266 C-179.80199017 112.57267784 -181.4597341 109.22452723 -183.125 105.875 C-183.47175781 105.18535156 -183.81851562 104.49570312 -184.17578125 103.78515625 C-184.51222656 103.11097656 -184.84867187 102.43679688 -185.1953125 101.7421875 C-185.49453613 101.1426123 -185.79375977 100.54303711 -186.10205078 99.92529297 C-187.16256541 97.65144351 -188.08547595 95.3358867 -189 93 C-187.99026123 93.02094727 -186.98052246 93.04189453 -185.94018555 93.06347656 C-157.30239161 93.60340094 -130.40032054 92.27360961 -103 83 C-102.23961426 82.74379883 -101.47922852 82.48759766 -100.69580078 82.22363281 C-59.95261473 68.1572177 -23.40341986 39.63358106 -1.49609375 2.38671875 C-1.00238281 1.59910156 -0.50867188 0.81148438 0 0 Z " fill="#611B1B" transform="translate(549,445)"/>
<path d="M0 0 C3.20471353 3.83533694 5.2438126 8.27468227 7.4375 12.75 C8.12969416 14.15650316 8.82244519 15.56273234 9.515625 16.96875 C9.90169922 17.75378906 10.28777344 18.53882812 10.68554688 19.34765625 C12.18599948 22.37531544 13.70902276 25.39106012 15.234375 28.40625 C15.80357666 29.53450195 16.37277832 30.66275391 16.95922852 31.82519531 C18.08452538 34.05512388 19.21248289 36.28371244 20.34350586 38.51074219 C30 57.70920918 30 57.70920918 30 62 C30.66 62 31.32 62 32 62 C32.495 63.155 32.99 64.31 33.5 65.5 C35.58236551 70.18906765 37.83594021 74.78446238 40.125 79.375 C40.47369141 80.07689453 40.82238281 80.77878906 41.18164062 81.50195312 C42.66244876 84.45500982 44.16517431 87.24776147 46 90 C46 91.32 46 92.64 46 94 C46.66 94 47.32 94 48 94 C48.33 95.32 48.66 96.64 49 98 C47.83150513 98.06731323 47.83150513 98.06731323 46.6394043 98.13598633 C-7.25450821 101.323026 -57.52612947 116.06509641 -96 156 C-97.20849609 157.2065625 -97.20849609 157.2065625 -98.44140625 158.4375 C-108.53006529 168.54156157 -117.60493258 179.58004101 -124.72265625 192.0078125 C-125.14417969 192.66523438 -125.56570312 193.32265625 -126 194 C-126.66 194 -127.32 194 -128 194 C-128.46148437 193.06542969 -128.92296875 192.13085938 -129.3984375 191.16796875 C-133.20490209 183.49262226 -137.10322412 175.87739574 -141.125 168.3125 C-144.4213342 162.09434468 -147.55133621 155.84584434 -150.44921875 149.4296875 C-155.41145756 138.45526515 -160.56077742 127.59874007 -166.32275391 117.02026367 C-168.4822077 113.03935279 -170.38249936 109.02261364 -172.12109375 104.84375 C-173.07007913 102.69432481 -173.07007913 102.69432481 -175.3125 99.9375 C-177.16261572 96.71692819 -177.32865338 94.84840862 -176.76928711 91.20483398 C-175.19634572 86.69666715 -171.54308148 83.75041374 -168.125 80.5625 C-167.34850098 79.81460205 -166.57200195 79.0667041 -165.77197266 78.29614258 C-160.08025271 72.86754495 -154.21017255 67.82624129 -148 63 C-146.89698193 62.08796028 -145.79690035 61.1723617 -144.69921875 60.25390625 C-110.95184453 32.22423414 -70.23057913 13.95002052 -28 3 C-26.99356445 2.73316406 -26.99356445 2.73316406 -25.96679688 2.4609375 C-17.82921733 0.34028595 -8.32507899 -1.94398283 0 0 Z " fill="#611B1B" transform="translate(343,52)"/>
<path d="M0 0 C46.15962623 -1.8382152 91.39403214 21.18446893 124.625 51.8125 C150.56932669 76.22227003 170.19812565 108.11270285 178.48974609 142.86914062 C179.00691361 145.02887179 179.55735119 147.17807642 180.11328125 149.328125 C188.84515854 183.72501071 185.67774301 219.12789947 176 253 C181.61 253 187.22 253 193 253 C193 253.33 193 253.66 193 254 C190.37492193 254.02792636 187.75016202 254.04726274 185.125 254.0625 C184.06345703 254.07506836 184.06345703 254.07506836 182.98046875 254.08789062 C174.30541042 254.12496352 165.6554577 253.52333954 157 253 C157.0314209 254.1645874 157.0628418 255.3291748 157.09521484 256.52905273 C157.20449862 260.88423576 157.27294278 265.23929976 157.32958984 269.59545898 C157.35960914 271.4742476 157.40043883 273.35289789 157.45263672 275.23120117 C157.96367396 294.10450793 157.96367396 294.10450793 152.29931641 300.75415039 C151.65615479 301.37084595 151.65615479 301.37084595 151 302 C147.30787706 298.76530822 145.32344249 295.11638879 143.25 290.75 C142.54324533 289.29804242 141.83620661 287.84622308 141.12890625 286.39453125 C140.77328613 285.65799316 140.41766602 284.92145508 140.05126953 284.16259766 C138.77494193 281.53702639 137.46060872 278.93195735 136.14257812 276.32714844 C131.91826271 267.96922377 127.87682665 259.52558438 123.85620117 251.06811523 C121.29408066 245.68210957 118.68386057 240.32626562 116 235 C115.57976562 234.14792969 115.15953125 233.29585937 114.7265625 232.41796875 C112.1150614 227.13014206 109.34736938 221.96159487 106.4296875 216.8359375 C102.84588164 209.72707669 101.56082412 204.19606067 101.63110352 196.31445312 C101.6254538 194.9128318 101.6254538 194.9128318 101.61968994 193.4828949 C101.61328547 191.46683248 101.61356103 189.45073983 101.61987495 187.43467712 C101.62902678 184.23916589 101.61871492 181.04423619 101.60325623 177.84875488 C101.56326633 168.76815632 101.5619544 159.68760561 101.56420898 150.60693359 C101.56426016 145.04087663 101.54505663 139.47513493 101.51487541 133.90916443 C101.50408023 130.76935213 101.51616145 127.63014891 101.52870178 124.49035645 C101.51979442 122.55541387 101.50971902 120.6204762 101.49829102 118.68554688 C101.50803452 117.8198558 101.51777802 116.95416473 101.52781677 116.0622406 C101.45965655 110.25769143 100.26283008 105.85283244 97 101 C93.14351964 97.33164064 90.08420096 95.90567389 84.80395508 95.79467773 C83.96331009 95.77473251 83.1226651 95.75478729 82.25654602 95.73423767 C81.35333115 95.71752518 80.45011627 95.70081268 79.51953125 95.68359375 C78.12754768 95.6524221 78.12754768 95.6524221 76.70744324 95.62062073 C73.7425376 95.55522677 70.77754328 95.49628738 67.8125 95.4375 C65.8027252 95.39430513 63.79295937 95.35069053 61.78320312 95.30664062 C56.85555968 95.19955573 51.92782701 95.09825955 47 95 C39.63504587 81.23919144 32.61884021 67.31724795 25.68603516 53.33496094 C21.55972997 45.02852133 17.35192021 36.77919308 12.94309998 28.61837769 C10.59833321 24.25073198 8.62550536 19.86426794 6.90234375 15.2109375 C5.57997283 11.97084251 3.83984089 9.00988781 2.05078125 6.0078125 C1.00285042 4.00544652 0.45023109 2.2066271 0 0 Z " fill="#C9C9CB" transform="translate(393,152)"/>
<path d="M0 0 C0.81276398 0.00141495 1.62552795 0.0028299 2.46292114 0.00428772 C5.04042351 0.0098529 7.6178367 0.02239885 10.1953125 0.03515625 C11.95051957 0.04017575 13.70572802 0.04473787 15.4609375 0.04882812 C19.74742982 0.05981091 24.03385607 0.07705133 28.3203125 0.09765625 C28.3203125 0.42765625 28.3203125 0.75765625 28.3203125 1.09765625 C26.3403125 1.42765625 24.3603125 1.75765625 22.3203125 2.09765625 C24.61128171 7.51151087 27.10749586 12.68424548 30.07421875 17.76171875 C31.3203125 20.09765625 31.3203125 20.09765625 32.68920898 23.32177734 C34.21301332 26.90280873 35.90928793 30.37285512 37.6640625 33.84765625 C38.37516785 35.26033219 39.08609119 36.67309975 39.796875 38.0859375 C40.19358398 38.87307129 40.59029297 39.66020508 40.99902344 40.47119141 C43.60626833 45.65388552 46.19585829 50.84542699 48.7890625 56.03515625 C49.94785116 58.35289734 51.10670613 60.67060527 52.265625 62.98828125 C60.29296875 79.04296875 60.29296875 79.04296875 68.3203125 95.09765625 C82.1803125 95.42765625 96.0403125 95.75765625 110.3203125 96.09765625 C110.3203125 96.42765625 110.3203125 96.75765625 110.3203125 97.09765625 C109.19110036 97.09912281 108.06188822 97.10058937 106.89845753 97.10210037 C79.44091686 97.13867141 51.9834984 97.19808951 24.52605915 97.28155899 C11.24792079 97.3213933 -2.03015792 97.35376348 -15.30834961 97.36865234 C-26.87963296 97.38164608 -38.45078531 97.40855244 -50.02199489 97.45226932 C-56.15068007 97.47493531 -62.27920337 97.49056385 -68.40793419 97.4895401 C-74.17405039 97.48879653 -79.93980805 97.50662543 -85.70583153 97.53882408 C-87.82422756 97.54735709 -89.94266365 97.54905009 -92.06106949 97.54345894 C-94.94992326 97.53684876 -97.83762628 97.55466827 -100.72636414 97.57867432 C-101.98853076 97.56703369 -101.98853076 97.56703369 -103.2761957 97.5551579 C-107.06955236 97.61109589 -109.2104912 97.82689002 -112.55177021 99.75509262 C-116.83657611 104.47211358 -118.05336532 108.51499542 -118.07841492 114.81747437 C-118.08506174 115.46780219 -118.09170857 116.11813001 -118.09855682 116.78816473 C-118.1171131 118.95317681 -118.11458666 121.11763265 -118.11206055 123.28271484 C-118.12108226 124.8402382 -118.13141048 126.39775445 -118.14294434 127.95526123 C-118.17049256 132.17379849 -118.17979588 136.39220094 -118.18579841 140.61081648 C-118.19518774 145.02312009 -118.2213916 149.43532324 -118.24580383 153.8475647 C-118.28945711 162.19843002 -118.31801127 170.54927584 -118.34112722 178.90022051 C-118.36818516 188.4093055 -118.41209631 197.91828936 -118.45741594 207.42730212 C-118.55024543 226.98403242 -118.62193395 246.54079298 -118.6796875 266.09765625 C-119.0096875 266.09765625 -119.3396875 266.09765625 -119.6796875 266.09765625 C-119.68515594 264.30813034 -119.68515594 264.30813034 -119.69073486 262.48245239 C-119.72775357 251.2128386 -119.78560153 239.94349631 -119.86359024 228.67408943 C-119.90301794 222.88102243 -119.93522964 217.08810637 -119.95068359 211.29492188 C-119.96588097 205.69910891 -120.00038172 200.10371105 -120.04799652 194.50808334 C-120.06277848 192.37841281 -120.07072668 190.248683 -120.07157135 188.11896133 C-120.07395232 185.12459851 -120.10112324 182.1313724 -120.13378906 179.13720703 C-120.12624352 177.83060371 -120.12624352 177.83060371 -120.11854553 176.49760437 C-120.27786063 166.99422536 -124.4058448 159.25036195 -128.9296875 151.09765625 C-132.10796605 145.24365585 -134.98208021 139.33970184 -137.6171875 133.22265625 C-141.48931885 124.25230063 -145.9904095 115.66889742 -150.63134766 107.07617188 C-151.57477401 105.29565785 -152.4647559 103.48707097 -153.34765625 101.67578125 C-154.55407919 99.0208407 -154.55407919 99.0208407 -156.6796875 97.09765625 C-149.90284073 85.59384413 -142.32023855 75.26600024 -133.6796875 65.09765625 C-132.98617187 64.26105469 -132.29265625 63.42445313 -131.578125 62.5625 C-128.27043725 58.64311657 -124.73051398 55.23300218 -120.8125 51.92578125 C-119.35929594 50.68017777 -117.93794165 49.39666567 -116.546875 48.08203125 C-88.74991885 21.88693359 -52.04910489 6.78697609 -14.6796875 1.09765625 C-13.79514893 0.92347168 -12.91061035 0.74928711 -11.99926758 0.56982422 C-7.96828238 -0.00353206 -4.06483447 -0.02695374 0 0 Z " fill="#ADB0B3" transform="translate(371.6796875,150.90234375)"/>
<path d="M0 0 C0.33 0 0.66 0 1 0 C1.00142502 1.18857605 1.00285004 2.3771521 1.00431824 3.60174561 C1.02103843 14.84132804 1.06396525 26.08055074 1.13209057 37.31994247 C1.16627906 43.09729889 1.19145791 48.87439314 1.19555664 54.65185547 C1.19985699 60.23476822 1.22846388 65.81709038 1.27343178 71.39981842 C1.28635132 73.52225546 1.29073429 75.64476338 1.28615379 77.7672348 C1.21374536 94.02331363 1.21374536 94.02331363 7 109 C7.35269455 109.64338318 7.7053891 110.28676636 8.06877136 110.949646 C8.66719732 112.01761134 9.28347551 113.07570326 9.9140625 114.125 C13.49294442 120.30436446 16.48228608 126.84355138 19.45874023 133.328125 C22.21211311 139.32460422 25.11755336 145.19205108 28.25 151 C32.47679696 158.83716689 36.32835211 166.83242308 40.10644531 174.89453125 C42.56364114 180.11173992 45.14383482 185.16549463 48.09082031 190.125 C49 192 49 192 49 195 C43.87781634 203.55654175 36.87775532 210.84394153 30 218 C29.45537109 218.57186035 28.91074219 219.1437207 28.34960938 219.73291016 C-0.58043453 249.97720463 -38.75465244 269.16154479 -80 276 C-81.84851563 276.33451172 -81.84851563 276.33451172 -83.734375 276.67578125 C-95.96689056 278.57259537 -108.48971241 278.47530907 -120.83886719 278.05224609 C-123.94540293 277.93106235 -123.94540293 277.93106235 -126.79394531 278.32666016 C-129.79433079 278.51626069 -131.33572078 278.42855783 -134 277 C-136.96894747 272.73768836 -138.92069263 268.1845589 -140.94189453 263.41589355 C-142.76442529 259.25464456 -144.86734965 255.23739801 -146.9375 251.1953125 C-147.77876846 249.52545659 -148.6186069 247.85487948 -149.45703125 246.18359375 C-150.74315965 243.62375612 -152.03051133 241.06457471 -153.32177734 238.50732422 C-154.59322857 235.98850049 -155.85961637 233.46718866 -157.125 230.9453125 C-157.71075806 229.78928024 -157.71075806 229.78928024 -158.30834961 228.6098938 C-161 223.22773977 -161 223.22773977 -161 221 C-131.63 220.67 -102.26 220.34 -72 220 C-72 215.05 -72 210.1 -72 205 C-73.56259152 203.43740848 -75.4005851 203.65885448 -77.5625 203.375 C-83.51016889 202.20929093 -87.18152277 199.67388668 -91 195 C-94.515521 188.94718993 -96.14561492 183.23165359 -96.0625 176.25 C-96.05347656 175.26515625 -96.04445313 174.2803125 -96.03515625 173.265625 C-96.02355469 172.51796875 -96.01195312 171.7703125 -96 171 C-94.96096527 170.99413376 -93.92193054 170.98826752 -92.85140991 170.98222351 C-83.05217525 170.9249726 -73.253162 170.85219849 -63.45415306 170.76428509 C-58.41655456 170.71958677 -53.37903683 170.68032936 -48.34130859 170.65356445 C-43.4782219 170.62752624 -38.61544612 170.58711994 -33.75255203 170.53681374 C-31.89868669 170.52014857 -30.04476758 170.50863211 -28.19083786 170.50238609 C-25.59092483 170.49274122 -22.99180659 170.46467758 -20.39208984 170.43237305 C-19.62819946 170.43380814 -18.86430908 170.43524323 -18.07727051 170.4367218 C-13.31816405 170.35327104 -10.0420459 169.51951668 -6 167 C-1.80686793 162.35355636 -0.87571091 159.8797923 -0.84178162 153.68527222 C-0.83684364 153.03019499 -0.83190566 152.37511776 -0.82681805 151.70018971 C-0.81140501 149.49527884 -0.80307219 147.29039717 -0.79467773 145.08544922 C-0.78510219 143.50881695 -0.77509231 141.93218726 -0.76467896 140.3555603 C-0.73758868 136.06657582 -0.71660148 131.77758029 -0.69667697 127.48855734 C-0.6748428 123.00953235 -0.64744157 118.53054159 -0.62062073 114.05154419 C-0.57065903 105.56596373 -0.52573312 97.08036432 -0.48259836 88.59474671 C-0.43325567 78.93585307 -0.37832655 69.27699376 -0.32291877 59.61813331 C-0.20904536 39.74545417 -0.10221802 19.87274228 0 0 Z " fill="#ADB0B3" transform="translate(494,261)"/>
<path d="M0 0 C4.30154984 3.68704272 8.52903999 7.35382906 12.6875 11.1875 C13.73304421 12.14977078 14.77861797 13.11200944 15.82421875 14.07421875 C16.35063965 14.55938965 16.87706055 15.04456055 17.41943359 15.54443359 C19.94206699 17.86756308 22.47116273 20.18362822 25 22.5 C28.06208843 25.30482075 31.12231019 28.1115782 34.17578125 30.92578125 C35.2212621 31.88812086 36.26683351 32.85036211 37.3125 33.8125 C38.06128418 34.50267212 38.06128418 34.50267212 38.82519531 35.20678711 C41.57685991 37.73252072 44.37471945 40.17896763 47.25 42.5625 C48.61125 43.7690625 48.61125 43.7690625 50 45 C50 45.66 50 46.32 50 47 C40.1 47.495 40.1 47.495 30 48 C32.62666778 53.7914972 32.62666778 53.7914972 35.265625 59.57739258 C35.75289063 60.66250122 35.75289063 60.66250122 36.25 61.76953125 C36.58515625 62.50792236 36.9203125 63.24631348 37.265625 64.00708008 C38 66 38 66 38 69 C36.06767179 69.86580287 34.12892806 70.71729941 32.1875 71.5625 C31.10855469 72.03816406 30.02960938 72.51382813 28.91796875 73.00390625 C26 74 26 74 23 73 C21.63496638 70.36054527 20.44518502 67.79844273 19.3125 65.0625 C18.99216797 64.32064453 18.67183594 63.57878906 18.34179688 62.81445312 C16 57.30698627 16 57.30698627 16 55 C15.5153125 55.43570313 15.030625 55.87140625 14.53125 56.3203125 C13.8609375 56.91585937 13.190625 57.51140625 12.5 58.125 C11.8503125 58.70507812 11.200625 59.28515625 10.53125 59.8828125 C7.13154052 62.72639667 3.54572378 65.34070717 0 68 C0 45.56 0 23.12 0 0 Z " fill="#212020" transform="translate(405,296)"/>
<path d="M0 0 C26.07 0 52.14 0 79 0 C79 19.50649351 79 19.50649351 74.1953125 25.1015625 C68.15267338 30.64254856 62.999177 32.18652437 55 33 C55 37.62 55 42.24 55 47 C54.67 47 54.34 47 54 47 C54.05542969 46.18402344 54.11085938 45.36804688 54.16796875 44.52734375 C54.24045795 31.20382873 48.24270981 20.50233229 42 9 C41.62547195 8.0849192 41.62547195 8.0849192 41.24337769 7.15135193 C40.330126 5.14147913 39.50271422 3.62214743 38 2 C35.10767448 0.97719567 32.34091593 1.04412098 29.296875 1.09765625 C28.45908508 1.08536484 27.62129517 1.07307343 26.75811768 1.06040955 C24.08785485 1.02866963 21.42034933 1.04495721 18.75 1.0625 C16.93747432 1.04939156 15.1249684 1.03315198 13.3125 1.01367188 C8.87441134 0.97280879 4.43818672 0.97500593 0 1 C0 0.67 0 0.34 0 0 Z " fill="#ABAEB1" transform="translate(270,432)"/>
<path d="M0 0 C3.37958304 1.68979152 5.12911919 2.85515821 7.7578125 5.37890625 C8.46147949 6.04889648 9.16514648 6.71888672 9.89013672 7.40917969 C10.6276416 8.11977539 11.36514648 8.83037109 12.125 9.5625 C13.65016206 11.01784944 15.17619988 12.47228168 16.703125 13.92578125 C17.43982422 14.62783691 18.17652344 15.32989258 18.93554688 16.05322266 C22.2576374 19.18595088 25.67413075 22.20394664 29.1171875 25.203125 C31 27 31 27 34 31 C28.72 31 23.44 31 18 31 C18.6496875 32.49273437 19.299375 33.98546875 19.96875 35.5234375 C20.81268983 37.47387621 21.65642949 39.42440153 22.5 41.375 C22.92925781 42.35984375 23.35851562 43.3446875 23.80078125 44.359375 C24.20683594 45.30039062 24.61289062 46.24140625 25.03125 47.2109375 C25.40830078 48.08024902 25.78535156 48.94956055 26.17382812 49.84521484 C27 52 27 52 27 54 C25.02 54.66 23.04 55.32 21 56 C18.03 49.4 15.06 42.8 12 36 C9.76144566 35.77368292 9.76144566 35.77368292 7.87109375 37.96875 C7.06800781 38.8040625 6.26492188 39.639375 5.4375 40.5 C3.97503272 42.01628608 2.49985733 43.52068866 1 45 C0.67 45 0.34 45 0 45 C0 30.15 0 15.3 0 0 Z " fill="#FBFAFB" transform="translate(410,308)"/>
<path d="M0 0 C5.33739473 1.98844117 8.45333824 4.90667648 11 10 C11.54449744 16.42506974 10.80407493 19.75654537 7 25 C3.23189865 28.43562182 -0.65928838 28.5154745 -5.5625 28.34765625 C-9.24866644 27.82190495 -11.28983949 26.51185609 -14 24 C-17.05519632 19.5190454 -17.94271367 15.29614423 -17 10 C-13.3640833 2.72816659 -8.22408457 -1.02801057 0 0 Z " fill="#201F20" transform="translate(319,330)"/>
<path d="M0 0 C4.40830916 2.16407904 7.12843553 4.42506462 9 9 C9.53218983 14.58799317 9.25015553 18.23310522 6 23 C2.32659249 26.48973714 -0.63228226 27.30093333 -5.5625 27.5 C-9.11918967 27.35522294 -10.82393101 27.09537071 -14 25.375 C-17.80985583 20.8507962 -19.59982313 16.85886355 -19.3515625 10.95703125 C-18.57685146 6.64447314 -16.06159257 3.93669932 -12.875 1.125 C-8.55651358 -0.56484251 -4.5732948 -0.65960983 0 0 Z " fill="#1E1D1D" transform="translate(321,282)"/>
<path d="M0 0 C1.32 0 2.64 0 4 0 C4.33 4.29 4.66 8.58 5 13 C5.99 12.01 6.98 11.02 8 10 C11.74451128 9.14411171 15.49191761 9.15697257 18.88671875 11.0546875 C21.04481413 12.82087694 22.74601136 14.49202273 24 17 C24.34717992 22.29449372 24.52421718 25.74663444 21 30 C18.02640867 32.39539302 16.26178923 32.97244324 12.4375 33.375 C8.88820703 32.9878044 7.53164264 32.43037694 5 30 C4.67 30.99 4.34 31.98 4 33 C2.68 33 1.36 33 0 33 C0 22.11 0 11.22 0 0 Z " fill="#1A1919" transform="translate(341,323)"/>
<path d="M0 0 C11.88 0 23.76 0 36 0 C36 13.2 36 26.4 36 40 C32.40618314 36.40618314 31.16843146 34.69624703 29.25 30.25 C26.8688432 24.89239719 24.37491964 19.61767388 21.75 14.375 C21.4087207 13.68825195 21.06744141 13.00150391 20.71582031 12.29394531 C19.26890521 9.40731369 17.79366409 6.69049614 16 4 C16 3.01 16 2.02 16 1 C10.72 1 5.44 1 0 1 C0 0.67 0 0.34 0 0 Z " fill="#A11B1F" transform="translate(550,499)"/>
<path d="M0 0 C3.21899883 2.15039676 6.25082294 4.50164588 8 8 C8.59968751 13.27725011 7.27164725 15.88707202 4 20 C-0.01858595 22.6790573 -3.27641721 22.69610694 -8 22 C-10.87029869 20.20606332 -12.49131638 19.01736724 -14 16 C-14.54399285 11.460781 -14.62289461 8.0455731 -12.25 4.0625 C-8.33014723 0.46930163 -5.39420238 -0.84614939 0 0 Z " fill="#AAADB0" transform="translate(376,399)"/>
<path d="M0 0 C1.6875 1.1875 1.6875 1.1875 3.6875 4.1875 C3.91455078 6.2722168 3.91455078 6.2722168 3.8828125 8.63671875 C3.87636719 9.48427734 3.86992187 10.33183594 3.86328125 11.20507812 C3.84652344 12.08615234 3.82976562 12.96722656 3.8125 13.875 C3.80347656 14.76767578 3.79445313 15.66035156 3.78515625 16.58007812 C3.76159748 18.78282314 3.72870329 20.98502588 3.6875 23.1875 C2.3675 23.1875 1.0475 23.1875 -0.3125 23.1875 C-0.6425 22.5275 -0.9725 21.8675 -1.3125 21.1875 C-2.3025 21.8475 -3.2925 22.5075 -4.3125 23.1875 C-11.29013578 23.85203674 -11.29013578 23.85203674 -14.8125 21.5625 C-16.78192769 18.44423949 -16.99177401 16.81029473 -16.3125 13.1875 C-14.5 10.8125 -14.5 10.8125 -11.3125 9.1875 C-7.62025811 8.86598455 -4.00812961 8.95450059 -0.3125 9.1875 C-0.6425 7.5375 -0.9725 5.8875 -1.3125 4.1875 C-2.72905793 4.1602585 -4.14577045 4.14099533 -5.5625 4.125 C-6.35140625 4.11339844 -7.1403125 4.10179687 -7.953125 4.08984375 C-10.21941002 4.18364694 -12.1413895 4.55508937 -14.3125 5.1875 C-13.97661682 2.66837612 -13.73895046 1.51553881 -11.6875 -0.0625 C-7.70570412 -1.31990923 -3.95184053 -1.38848451 0 0 Z " fill="#1E1D1D" transform="translate(355.3125,283.8125)"/>
<path d="M0 0 C3.74225404 1.1566967 5.28964665 1.79776291 7.4375 5.0625 C8 8.5 8 8.5 7.4375 12.0625 C4.99151113 15.44371991 3.54453441 16.83186783 -0.5625 17.6875 C-4.66953441 16.83186783 -6.11651113 15.44371991 -8.5625 12.0625 C-9.36035988 7.59448469 -9.07984028 5.81499495 -6.5 2.0625 C-3.5625 0.0625 -3.5625 0.0625 0 0 Z " fill="#F4F3F4" transform="translate(316.5625,286.9375)"/>
<path d="M0 0 C4.0743356 0.84881992 5.54405875 2.30225596 8 5.625 C8.70960213 9.40954468 8.27801176 11.09214413 6.5 14.5 C3.47084317 17.07478331 1.79349229 17.37045844 -2.09375 17.109375 C-4 16.625 -4 16.625 -6.5 14.5 C-8.27801176 11.09214413 -8.70960213 9.40954468 -8 5.625 C-5.54405875 2.30225596 -4.0743356 0.84881992 0 0 Z " fill="#F3F2F2" transform="translate(353,335.375)"/>
<path d="M0 0 C31.02 0 62.04 0 94 0 C94 0.33 94 0.66 94 1 C92.87691437 1.01030746 91.75382874 1.02061493 90.59671021 1.03123474 C80.03108563 1.12883997 69.46552165 1.23156164 58.8999958 1.33933926 C53.46769393 1.39458778 48.03538669 1.44801086 42.60302734 1.49731445 C37.36401443 1.54492954 32.12506841 1.59727131 26.8861351 1.65294075 C24.88380466 1.67337726 22.88145586 1.69208816 20.87909317 1.70907402 C18.08225088 1.73308935 15.28553575 1.7631478 12.48876953 1.79467773 C11.65439362 1.8004332 10.8200177 1.80618866 9.96035767 1.81211853 C5.84759131 1.76414635 5.84759131 1.76414635 2 3 C1.67 25.77 1.34 48.54 1 72 C0.67 72 0.34 72 0 72 C0 48.24 0 24.48 0 0 Z " fill="#F1D1D0" transform="translate(586,333)"/>
<path d="M0 0 C3.98066095 1.57724302 5.60667274 2.41000911 8 6 C5.75 7.625 5.75 7.625 3 9 C1.64914193 8.36959957 0.31747324 7.69748583 -1 7 C-4.76185322 7.33587975 -8.36394827 7.98190552 -12 9 C-12.33 10.98 -12.66 12.96 -13 15 C-13.33 14.34 -13.66 13.68 -14 13 C-14.66 13 -15.32 13 -16 13 C-15.76001446 6.88036865 -15.76001446 6.88036865 -13.66796875 4.45703125 C-8.90631627 0.50636581 -6.16243351 -0.4108289 0 0 Z " fill="#201E1F" transform="translate(319,330)"/>
<path d="M0 0 C0.33 0 0.66 0 1 0 C0.86089513 3.58362776 0.71254587 7.16681498 0.5625 10.75 C0.50352539 12.27367187 0.50352539 12.27367187 0.44335938 13.828125 C0.40146484 14.8078125 0.35957031 15.7875 0.31640625 16.796875 C0.27974854 17.69760742 0.24309082 18.59833984 0.20532227 19.52636719 C0 22 0 22 -0.5 23.83361816 C-1.07295613 26.31610166 -1.16118074 28.58814534 -1.20532227 31.13574219 C-1.22526749 32.15649841 -1.24521271 33.17725464 -1.26576233 34.22894287 C-1.28247482 35.32386047 -1.29918732 36.41877808 -1.31640625 37.546875 C-1.33718735 38.6732135 -1.35796844 39.799552 -1.37937927 40.96002197 C-1.44474333 44.55661949 -1.50369885 48.15328977 -1.5625 51.75 C-1.6056977 54.1888096 -1.6493124 56.62761184 -1.69335938 59.06640625 C-1.8004113 65.044194 -1.90220217 71.02205407 -2 77 C-5.05709807 73.94290193 -4.32446654 70.37315981 -4.3359375 66.26953125 C-4.34404449 65.37850204 -4.35215149 64.48747284 -4.36050415 63.56944275 C-4.37953708 60.65031891 -4.37928084 57.73167787 -4.375 54.8125 C-4.3764502 53.82568237 -4.37790039 52.83886475 -4.37939453 51.82214355 C-4.37653958 34.26487757 -2.95908563 17.305929 0 0 Z " fill="#98383C" transform="translate(91,291)"/>
<path d="M0 0 C1.875 1.0625 1.875 1.0625 3 3 C3.4375 6.5 3.4375 6.5 3 10 C1.375 12 1.375 12 -1 13 C-4.125 12.875 -4.125 12.875 -7 12 C-9.31282587 8.53076119 -9.42478586 7.07794425 -9 3 C-6.79086995 -0.68188342 -4.01844539 -0.50230567 0 0 Z " fill="#201E1F" transform="translate(319,338)"/>
<path d="M0 0 C11.88 0 23.76 0 36 0 C36 13.2 36 26.4 36 40 C31.5 35.5 31.5 35.5 31 31 C31.66 31.33 32.32 31.66 33 32 C33.33 32.99 33.66 33.98 34 35 C34.33 24.11 34.66 13.22 35 2 C29.39 2 23.78 2 18 2 C17.67 2.99 17.34 3.98 17 5 C16.67 3.68 16.34 2.36 16 1 C10.72 1 5.44 1 0 1 C0 0.67 0 0.34 0 0 Z " fill="#95373B" transform="translate(550,499)"/>
<path d="M0 0 C-0.33 0.99 -0.66 1.98 -1 3 C-5.455 3.495 -5.455 3.495 -10 4 C-10.38218767 5.65614657 -10.71395102 7.32457024 -11 9 C-10.67 9.33 -10.34 9.66 -10 10 C-8.08575543 9.8981629 -8.08575543 9.8981629 -5.9375 9.5625 C-3.9884375 9.2840625 -3.9884375 9.2840625 -2 9 C-2 10.32 -2 11.64 -2 13 C-5.20320397 14.60160199 -8.52426522 14.48770192 -12 14 C-14.5 12.375 -14.5 12.375 -16 10 C-16.5625 7 -16.5625 7 -16 4 C-11.88688546 -1.38959837 -6.15757443 -0.38821835 0 0 Z " fill="#1E1E1E" transform="translate(355,293)"/>
<path d="M0 0 C0.33 0 0.66 0 1 0 C1.20753906 0.93457031 1.41507813 1.86914062 1.62890625 2.83203125 C5.05367802 17.65867037 10.16735597 31.79322594 16.86645508 45.45727539 C19 49.81830261 19 49.81830261 19 52 C16 51 16 51 14.8671875 48.890625 C14.53976563 48.01921875 14.21234375 47.1478125 13.875 46.25 C13.54242188 45.38890625 13.20984375 44.5278125 12.8671875 43.640625 C12.03382723 41.10300543 11.46319234 38.62790754 11 36 C10.34 36 9.68 36 9 36 C8.81824219 35.32453125 8.63648438 34.6490625 8.44921875 33.953125 C8.19785156 33.06109375 7.94648438 32.1690625 7.6875 31.25 C7.44386719 30.36828125 7.20023438 29.4865625 6.94921875 28.578125 C5.97406637 25.92956297 4.68150089 24.23740693 3 22 C2.64456573 19.66993089 2.3086247 17.33672984 2 15 C1.34 14.67 0.68 14.34 0 14 C0 9.38 0 4.76 0 0 Z " fill="#952E33" transform="translate(194,386)"/>
<path d="M0 0 C5.20779483 -0.54818893 8.87055316 0.97138125 13.53515625 3.02734375 C18.32870849 4.91893568 22.68461728 5.1142968 27.8125 5.0625 C29.55466797 5.04896484 29.55466797 5.04896484 31.33203125 5.03515625 C32.21246094 5.02355469 33.09289062 5.01195312 34 5 C34 4.34 34 3.68 34 3 C35.8125 3.125 35.8125 3.125 38 4 C39.05605906 5.97097419 40.06073931 7.97076631 41 10 C26.71625152 8.67127921 13.57891017 5.76452989 0 1 C0 0.67 0 0.34 0 0 Z " fill="#D3B8BA" transform="translate(319,527)"/>
<path d="M0 0 C2.61904157 0.53863308 3.76638607 0.97425118 5.875 2.6875 C7.28719248 6.04145713 7.32519252 8.46095988 6.875 12.0625 C5.375 14.5 5.375 14.5 2.875 16.0625 C-1.17060357 16.86664661 -4.10373756 16.70078902 -7.625 14.5 C-9.73506839 11.07113886 -9.74991523 9.02029649 -9.125 5.0625 C-6.52894849 1.16842273 -4.6393185 -0.35094476 0 0 Z M-6 3.1875 C-7.67968045 5.98696741 -7.58242277 7.86054064 -7.125 11.0625 C-5.64506844 13.62588689 -5.64506844 13.62588689 -3.125 15.0625 C0.5735004 14.91455998 2.23305573 14.70444427 4.875 12.0625 C5.3390446 7.40021115 5.3390446 7.40021115 3.75 3.125 C0.44940611 1.25466346 -2.74023517 1.2316411 -6 3.1875 Z " fill="#E8E7E8" transform="translate(317.125,335.9375)"/>
<path d="M0 0 C0.33 0 0.66 0 1 0 C1 7.59 1 15.18 1 23 C-2.54137349 18.57328313 -4.41846057 16.07385125 -5.4375 10.6875 C-4.76425974 6.55188125 -2.50780149 3.31358689 0 0 Z " fill="#952226" transform="translate(549,445)"/>
<path d="M0 0 C0.33 0 0.66 0 1 0 C1.44933921 8.83700441 1.44933921 8.83700441 -2 13 C-5.95179356 16.18338925 -9.01530948 16.29321709 -14 16 C-13.34 15.34 -12.68 14.68 -12 14 C-12.33 13.34 -12.66 12.68 -13 12 C-11.329375 11.5978125 -11.329375 11.5978125 -9.625 11.1875 C-5.78159049 10.34190981 -5.78159049 10.34190981 -4 7 C-3.61500109 5.34450469 -3.27206865 3.6777567 -3 2 C-2.34 2 -1.68 2 -1 2 C-0.67 1.34 -0.34 0.68 0 0 Z " fill="#222222" transform="translate(364,340)"/>
<path d="M0 0 C1.37478516 0.01740234 1.37478516 0.01740234 2.77734375 0.03515625 C3.69644531 0.04417969 4.61554688 0.05320312 5.5625 0.0625 C6.27277344 0.07410156 6.98304688 0.08570313 7.71484375 0.09765625 C7.38857089 3.11568018 7.10403139 4.69456906 4.96484375 6.91015625 C2.2926891 8.32046009 0.69644929 8.48997277 -2.28515625 8.09765625 C-2.94515625 7.43765625 -3.60515625 6.77765625 -4.28515625 6.09765625 C-3.56009338 0.15214074 -3.56009338 0.15214074 0 0 Z " fill="#E8E8E8" transform="translate(347.28515625,295.90234375)"/>
<path d="M0 0 C1.97956441 0.14033111 3.95865141 0.2874123 5.9375 0.4375 C7.03964844 0.51871094 8.14179688 0.59992187 9.27734375 0.68359375 C12 1 12 1 13 2 C15.1560354 2.28595838 17.31270393 2.44752485 19.48046875 2.62109375 C22 3 22 3 24.6640625 3.94140625 C29.96165978 5.62249391 35.42129097 6.14013578 40.91992188 6.85546875 C41.78552734 6.97535156 42.65113281 7.09523438 43.54296875 7.21875 C44.32696045 7.32123047 45.11095215 7.42371094 45.91870117 7.52929688 C48 8 48 8 51 10 C33.81735033 8.62784562 16.52106989 6.04032641 0 1 C0 0.67 0 0.34 0 0 Z " fill="#993339" transform="translate(303,630)"/>
<path d="M0 0 C-0.33 1.32 -0.66 2.64 -1 4 C-1.99 4 -2.98 4 -4 4 C-4.33 4.66 -4.66 5.32 -5 6 C-5.66 6 -6.32 6 -7 6 C-7.33 6.66 -7.66 7.32 -8 8 C-10.47362624 10.81481607 -12.1881014 12.65346376 -16 13 C-18.75 12.5625 -18.75 12.5625 -21 12 C-21 11.34 -21 10.68 -21 10 C-19.87980469 9.44570313 -18.75960937 8.89140625 -17.60546875 8.3203125 C-16.13275962 7.58864809 -14.66010628 6.85687139 -13.1875 6.125 C-12.44951172 5.76019531 -11.71152344 5.39539063 -10.95117188 5.01953125 C-10.23896484 4.66503906 -9.52675781 4.31054688 -8.79296875 3.9453125 C-8.1383667 3.62062988 -7.48376465 3.29594727 -6.80932617 2.96142578 C-1.23616049 0 -1.23616049 0 0 0 Z " fill="#F7EFED" transform="translate(533,602)"/>
<path d="M0 0 C0.7734375 0.495 0.7734375 0.495 1.5625 1 C1.1875 2.9375 1.1875 2.9375 0.5625 5 C-0.4275 5.495 -0.4275 5.495 -1.4375 6 C-1.4375 5.34 -1.4375 4.68 -1.4375 4 C-2.85405793 3.9727585 -4.27077045 3.95349533 -5.6875 3.9375 C-6.47640625 3.92589844 -7.2653125 3.91429687 -8.078125 3.90234375 C-10.34441002 3.99614694 -12.2663895 4.36758937 -14.4375 5 C-14.10161682 2.48087612 -13.86395046 1.32803881 -11.8125 -0.25 C-7.74319014 -1.53504522 -3.96583066 -1.62700745 0 0 Z " fill="#1F1F1F" transform="translate(355.4375,284)"/>
<path d="M0 0 C12.87 0 25.74 0 39 0 C39 0.66 39 1.32 39 2 C40.65 2 42.3 2 44 2 C44 2.33 44 2.66 44 3 C42.8346875 2.93941406 41.669375 2.87882812 40.46875 2.81640625 C26.98253633 2.12426992 13.49297094 1.54328249 0 1 C0 0.67 0 0.34 0 0 Z " fill="#F6D4D6" transform="translate(376,47)"/>
<path d="M0 0 C3.78995975 0.59654026 6.70356326 1.70067487 10.08203125 3.50390625 C11.01337891 3.99697266 11.94472656 4.49003906 12.90429688 4.99804688 C13.86400391 5.51431641 14.82371094 6.03058594 15.8125 6.5625 C16.79154297 7.08263672 17.77058594 7.60277344 18.77929688 8.13867188 C21.1893066 9.42009168 23.59600219 10.70734711 26 12 C23.14989187 12.95003604 21.83190557 13.09923551 18.9375 12.8125 C17.89916016 12.72935547 17.89916016 12.72935547 16.83984375 12.64453125 C16.23269531 12.43183594 15.62554688 12.21914062 15 12 C14.72542969 11.40058594 14.45085938 10.80117187 14.16796875 10.18359375 C12.43375427 6.94136667 9.54813417 5.82978689 6.375 4.25 C5.76398438 3.93417969 5.15296875 3.61835937 4.5234375 3.29296875 C3.02094261 2.51824482 1.51114982 1.75770329 0 1 C0 0.67 0 0.34 0 0 Z " fill="#992A2F" transform="translate(504,74)"/>
<path d="M0 0 C0.33 0.66 0.66 1.32 1 2 C-4.04901673 8.53507485 -4.04901673 8.53507485 -7.8125 10.375 C-12.77000503 12.90235551 -16.21079228 16.98343982 -20 21 C-20 18 -20 18 -17.91015625 15.546875 C-16.97042969 14.62390625 -16.03070313 13.7009375 -15.0625 12.75 C-14.56903076 12.26490967 -14.07556152 11.77981934 -13.56713867 11.2800293 C-9.31405834 7.16355023 -4.79647441 3.47004198 0 0 Z " fill="#B6A9A9" transform="translate(267,189)"/>
<path d="M0 0 C0.99 0.33 1.98 0.66 3 1 C3 1.66 3 2.32 3 3 C5.97 3.495 5.97 3.495 9 4 C8.67 4.99 8.34 5.98 8 7 C4.4375 8.1875 4.4375 8.1875 1 9 C-1.14809171 5.77786243 -1.29386153 4.72224599 -1 1 C-0.67 0.67 -0.34 0.34 0 0 Z " fill="#191718" transform="translate(428,361)"/>
<path d="M0 0 C1 2 1 2 0.3125 4.875 C-1.05459237 8.12998182 -2.50415953 9.58467051 -5 12 C-5.7872678 14.1381966 -5.7872678 14.1381966 -6 16 C-7.65 16 -9.3 16 -11 16 C-9.92044741 14.26847042 -8.83617488 12.53988316 -7.75 10.8125 C-7.14671875 9.84957031 -6.5434375 8.88664063 -5.921875 7.89453125 C-4.08362455 5.12594673 -2.11574051 2.56042049 0 0 Z " fill="#B1ADAD" transform="translate(232,223)"/>
<path d="M0 0 C0.33 0.99 0.66 1.98 1 3 C-0.375 4.5 -0.375 4.5 -2 6 C-2.66 6 -3.32 6 -4 6 C-4.33 6.99 -4.66 7.98 -5 9 C-7.0625 9.6875 -7.0625 9.6875 -9 10 C-9.66 8.68 -10.32 7.36 -11 6 C-7.37 4.02 -3.74 2.04 0 0 Z " fill="#5E1F21" transform="translate(239,85)"/>
<path d="M0 0 C0.33 0 0.66 0 1 0 C0.88918111 3.52142777 0.75877927 7.04187564 0.625 10.5625 C0.5940625 11.55314453 0.563125 12.54378906 0.53125 13.56445312 C0.31287503 19.04202523 -0.20950139 23.8104654 -2 29 C-2.33 29 -2.66 29 -3 29 C-2.52279768 19.21735243 -1.70426788 9.66303343 0 0 Z " fill="#A14343" transform="translate(91,291)"/>
<path d="M0 0 C0 0.99 0 1.98 0 3 C-8.25 3 -16.5 3 -25 3 C-25 2.67 -25 2.34 -25 2 C-21.77125066 1.66254072 -18.5419413 1.33076631 -15.3125 1 C-13.94448242 0.85691406 -13.94448242 0.85691406 -12.54882812 0.7109375 C-11.21948242 0.57558594 -11.21948242 0.57558594 -9.86328125 0.4375 C-9.05157471 0.35371094 -8.23986816 0.26992188 -7.40356445 0.18359375 C-4.92615534 -0.00564055 -2.4836252 -0.03092452 0 0 Z " fill="#F7E4E4" transform="translate(413,640)"/>
<path d="M0 0 C1.32 0.66 2.64 1.32 4 2 C4 4 4 4 2.6875 5.4375 C2.130625 5.953125 1.57375 6.46875 1 7 C0.443125 7.556875 -0.11375 8.11375 -0.6875 8.6875 C-1.120625 9.120625 -1.55375 9.55375 -2 10 C-3.5 8.625 -3.5 8.625 -5 7 C-5 6.34 -5 5.68 -5 5 C-4.34 5 -3.68 5 -3 5 C-2.5359375 4.0409375 -2.5359375 4.0409375 -2.0625 3.0625 C-1 1 -1 1 0 0 Z " fill="#171516" transform="translate(308,285)"/>
<path d="M0 0 C3.28834617 2.79042625 5.12735689 6.47328176 7.1875 10.1875 C7.55552734 10.84169922 7.92355469 11.49589844 8.30273438 12.16992188 C9.2062466 13.77746961 10.1037241 15.38840651 11 17 C10.34 17.33 9.68 17.66 9 18 C8.34 16.02 7.68 14.04 7 12 C5.35 11.67 3.7 11.34 2 11 C1.67 10.01 1.34 9.02 1 8 C1.33 7.34 1.66 6.68 2 6 C1.39421747 3.98072489 0.73080266 1.97746603 0 0 Z " fill="#9A2C31" transform="translate(634,186)"/>
<path d="M0 0 C5.94 3.465 5.94 3.465 12 7 C11.67 7.66 11.34 8.32 11 9 C9.35 8.67 7.7 8.34 6 8 C6 7.34 6 6.68 6 6 C4.02 6.33 2.04 6.66 0 7 C0 4.69 0 2.38 0 0 Z " fill="#F8E9E7" transform="translate(218,591)"/>
<path d="M0 0 C1.051875 0.495 1.051875 0.495 2.125 1 C5.26003116 2.09044562 7.70563182 2.15322643 11 2 C12.25664978 4.90600261 13 6.79604584 13 10 C10.8304939 8.52485505 8.66436293 7.0451561 6.5 5.5625 C5.87996094 5.14162109 5.25992188 4.72074219 4.62109375 4.28710938 C3.06289602 3.21691863 1.52921949 2.11120482 0 1 C0 0.67 0 0.34 0 0 Z " fill="#992A2F" transform="translate(209,584)"/>
<path d="M0 0 C0.66 0 1.32 0 2 0 C4.96656949 5.49687876 6.4036063 11.74410231 6 18 C6.66 18 7.32 18 8 18 C7.67 19.65 7.34 21.3 7 23 C5.1253146 20.1879719 4.48630711 18.535532 3.7109375 15.33203125 C3.49179687 14.43935547 3.27265625 13.54667969 3.046875 12.62695312 C2.82515625 11.69818359 2.6034375 10.76941406 2.375 9.8125 C2.14554688 8.87212891 1.91609375 7.93175781 1.6796875 6.96289062 C1.11447431 4.64316149 0.55480075 2.32223742 0 0 Z " fill="#963138" transform="translate(567,281)"/>
<path d="M0 0 C4.81033104 2.54664585 8.32442148 4.99027798 12 9 C10.68 9 9.36 9 8 9 C8 8.34 8 7.68 8 7 C6.865625 6.855625 5.73125 6.71125 4.5625 6.5625 C1 6 1 6 0 5 C-0.04063832 3.33382885 -0.042721 1.66611905 0 0 Z " fill="#9A292E" transform="translate(554,102)"/>
<path d="M0 0 C0.66 0.33 1.32 0.66 2 1 C1.071875 1.8971875 1.071875 1.8971875 0.125 2.8125 C-2.13676954 5.00811144 -2.13676954 5.00811144 -4 8 C-7 8.8125 -7 8.8125 -10 9 C-10.66 8.34 -11.32 7.68 -12 7 C-10.04754815 5.80285445 -8.08785003 4.61751926 -6.125 3.4375 C-5.03445313 2.77621094 -3.94390625 2.11492187 -2.8203125 1.43359375 C-1.88960938 0.96050781 -0.95890625 0.48742187 0 0 Z " fill="#5C2324" transform="translate(488,508)"/>
<path d="M0 0 C2.49361571 1.20381448 4.68143083 2.45428722 7 4 C7 4.66 7 5.32 7 6 C4.03 6 1.06 6 -2 6 C-1.34 4.02 -0.68 2.04 0 0 Z " fill="#1F1F1F" transform="translate(448,337)"/>
<path d="M0 0 C1.65 0 3.3 0 5 0 C6 1 6 1 6 4.8125 C5.9896875 5.53050781 5.979375 6.24851562 5.96875 6.98828125 C6.00191572 9.12332452 6.32452774 10.97358321 7 13 C6.34 13 5.68 13 5 13 C3.35 8.71 1.7 4.42 0 0 Z " fill="#9A272E" transform="translate(560,264)"/>
<path d="M0 0 C0 0.99 0 1.98 0 3 C-0.70125 3.2475 -1.4025 3.495 -2.125 3.75 C-5.12588652 4.94592334 -5.12588652 4.94592334 -8 7.0625 C-10.84594422 8.90050564 -12.68329188 9.60979904 -16 10 C-4.07692308 0 -4.07692308 0 0 0 Z " fill="#B2A6A6" transform="translate(287,177)"/>
<path d="M0 0 C1.06546953 3.1964086 1.07427838 5.65747276 1 9 C-0.65 8.67 -2.3 8.34 -4 8 C-4.33 8.99 -4.66 9.98 -5 11 C-5.99 10.34 -6.98 9.68 -8 9 C-5.36 6.03 -2.72 3.06 0 0 Z " fill="#94282E" transform="translate(166,142)"/>
<path d="M0 0 C2.1926135 4.2186994 4.36894477 8.60185899 3.625 13.4375 C3.41875 13.953125 3.2125 14.46875 3 15 C-0.97674419 10.30021142 -0.97674419 10.30021142 -1.04296875 6.59765625 C-0.77937106 4.37289171 -0.44865883 2.19452689 0 0 Z " fill="#A03036" transform="translate(668,260)"/>
<path d="M0 0 C0.33 0.66 0.66 1.32 1 2 C1.66 2.33 2.32 2.66 3 3 C0.69 5.64 -1.62 8.28 -4 11 C-5 8 -5 8 -3.6875 4.375 C-2 1 -2 1 0 0 Z " fill="#F8EBEA" transform="translate(166,137)"/>
<path d="M0 0 C0.7115625 0.7425 0.7115625 0.7425 1.4375 1.5 C3.25193719 3.24185971 4.55559077 3.57855013 7 4 C7 4.66 7 5.32 7 6 C6.05640625 5.70996094 6.05640625 5.70996094 5.09375 5.4140625 C-0.24216385 3.7907875 -5.57759268 2.30539435 -11 1 C-11 0.67 -11 0.34 -11 0 C-3.375 -1.125 -3.375 -1.125 0 0 Z " fill="#F9E0DE" transform="translate(477,59)"/>
<path d="M0 0 C1.98 0.66 3.96 1.32 6 2 C6 2.66 6 3.32 6 4 C6.99 4.33 7.98 4.66 9 5 C11.10190841 6.55981038 13.01957005 8.28362738 15 10 C14.34 10.66 13.68 11.32 13 12 C10.83035229 10.19096681 8.66421535 8.37801121 6.5 6.5625 C5.87996094 6.04623047 5.25992188 5.52996094 4.62109375 4.99804688 C3.06197284 3.68735732 1.52871719 2.34602708 0 1 C0 0.67 0 0.34 0 0 Z " fill="#9C3037" transform="translate(190,569)"/>
<path d="M0 0 C6.435 2.97 6.435 2.97 13 6 C9.42489889 6.89377528 7.75082437 7.0258444 4.25 6.5625 C3.05117187 6.40974609 3.05117187 6.40974609 1.828125 6.25390625 C1.22484375 6.17011719 0.6215625 6.08632813 0 6 C0 4.02 0 2.04 0 0 Z " fill="#F6E2E1" transform="translate(247,608)"/>
<path d="M0 0 C3.43927579 1.2419607 6.25207819 2.55740284 9 5 C9 5.66 9 6.32 9 7 C9.5775 7.268125 10.155 7.53625 10.75 7.8125 C13.0325868 9.01719859 14.9737942 10.40798115 17 12 C16.67 12.66 16.34 13.32 16 14 C14.26797907 12.60770997 12.53951516 11.21099444 10.8125 9.8125 C9.84957031 9.03519531 8.88664062 8.25789063 7.89453125 7.45703125 C5.09649579 5.08191073 2.5544533 2.62917223 0 0 Z " fill="#D8B2B2" transform="translate(251,486)"/>
<path d="M0 0 C4.66132863 3.57729872 7.73911534 7.10867301 11 12 C10.34 12.66 9.68 13.32 9 14 C7 11.33333333 5 8.66666667 3 6 C2.43925781 5.29359375 1.87851563 4.5871875 1.30078125 3.859375 C0 2 0 2 0 0 Z " fill="#97292D" transform="translate(236,471)"/>
<path d="M0 0 C0.33 0.99 0.66 1.98 1 3 C-0.423125 4.36125 -0.423125 4.36125 -1.875 5.75 C-4.14549867 8.00978877 -5.83296506 9.96570916 -7 13 C-8.32 12.67 -9.64 12.34 -11 12 C-10.54109375 11.55269531 -10.0821875 11.10539062 -9.609375 10.64453125 C-6.16447701 7.25029352 -2.92744915 3.86423288 0 0 Z " fill="#5E262A" transform="translate(535,466)"/>
<path d="M0 0 C4.54109672 4.26587874 8.24735246 9.03612328 12 14 C11.34 14.66 10.68 15.32 10 16 C10 15.34 10 14.68 10 14 C9.34 14 8.68 14 8 14 C7.34 12.02 6.68 10.04 6 8 C5.34 8 4.68 8 4 8 C0 2.58823529 0 2.58823529 0 0 Z " fill="#98333A" transform="translate(613,157)"/>
<path d="M0 0 C6.37732315 1.87724961 12.70695459 3.85671642 19 6 C19 6.33 19 6.66 19 7 C14.61737339 6.51304149 10.40618519 5.69111 6.125 4.625 C5.17882812 4.39039063 4.23265625 4.15578125 3.2578125 3.9140625 C2.51273437 3.61242187 1.76765625 3.31078125 1 3 C0.67 2.01 0.34 1.02 0 0 Z " fill="#FBE4E2" transform="translate(277,622)"/>
<path d="M0 0 C4.13621084 3.3810038 7.81316569 6.66590534 11 11 C9.35 10.67 7.7 10.34 6 10 C6 9.01 6 8.02 6 7 C5.195625 6.773125 4.39125 6.54625 3.5625 6.3125 C2.716875 5.879375 1.87125 5.44625 1 5 C0.1875 2.375 0.1875 2.375 0 0 Z " fill="#FBDFDD" transform="translate(172,553)"/>
<path d="M0 0 C0.99 0.99 1.98 1.98 3 3 C1.77472971 7.05281712 0.30119506 10.44360764 -2 14 C-3.0625 12.125 -3.0625 12.125 -4 10 C-3.67 9.34 -3.34 8.68 -3 8 C-2.01 8 -1.02 8 0 8 C0 5.36 0 2.72 0 0 Z " fill="#96282C" transform="translate(213,243)"/>
<path d="M0 0 C1.32 0.66 2.64 1.32 4 2 C1.36 4.64 -1.28 7.28 -4 10 C-5.37245106 7.25509788 -4.93580311 5.87939419 -4 3 C-1.9375 1.6875 -1.9375 1.6875 0 1 C0 0.67 0 0.34 0 0 Z " fill="#5F2529" transform="translate(240,209)"/>
<path d="M0 0 C0.99 0.33 1.98 0.66 3 1 C4.0625 3.375 4.0625 3.375 5 6 C5.99 7.485 5.99 7.485 7 9 C4 9 4 9 2.39453125 7.46875 C1.87246094 6.8190625 1.35039062 6.169375 0.8125 5.5 C0.28269531 4.8503125 -0.24710938 4.200625 -0.79296875 3.53125 C-1.19128906 3.0259375 -1.58960938 2.520625 -2 2 C-1.34 1.34 -0.68 0.68 0 0 Z " fill="#9D2A30" transform="translate(162,538)"/>
<path d="M0 0 C0.99 0.33 1.98 0.66 3 1 C-5.261959 9.6309795 -5.261959 9.6309795 -10 12 C-9.67 10.68 -9.34 9.36 -9 8 C-8.01 8 -7.02 8 -6 8 C-6 7.34 -6 6.68 -6 6 C-4.37550757 4.29220027 -2.70779973 2.62449243 -1 1 C-0.67 0.67 -0.34 0.34 0 0 Z " fill="#B7A9A8" transform="translate(515,484)"/>
<path d="M0 0 C0.66 0.66 1.32 1.32 2 2 C-2.455 7.94 -2.455 7.94 -7 14 C-7.66 13.67 -8.32 13.34 -9 13 C-8 11 -8 11 -5.5 8.0625 C-2.8750677 5.21679582 -2.8750677 5.21679582 -2 2 C-1.34 2 -0.68 2 0 2 C0 1.34 0 0.68 0 0 Z " fill="#B8A5A7" transform="translate(542,453)"/>
<path d="M0 0 C2.35082212 2.89642841 3.83519406 5.65356331 5.1875 9.125 C5.53167969 9.99382812 5.87585938 10.86265625 6.23046875 11.7578125 C7 14 7 14 7 16 C5.68 15.67 4.36 15.34 3 15 C2.87625 13.9275 2.7525 12.855 2.625 11.75 C2.08909822 8.5345893 1.44598512 6.79557123 0 4 C0 2.68 0 1.36 0 0 Z " fill="#D5B6B7" transform="translate(559,263)"/>
<path d="M0 0 C1.32 0.66 2.64 1.32 4 2 C-0.29 4.97 -4.58 7.94 -9 11 C-9 8 -9 8 -7.6875 6.3125 C-6 5 -6 5 -3 5 C-2.67 4.01 -2.34 3.02 -2 2 C-1.34 1.67 -0.68 1.34 0 1 C0 0.67 0 0.34 0 0 Z " fill="#5C282A" transform="translate(275,180)"/>
<path d="M0 0 C-0.33 1.32 -0.66 2.64 -1 4 C-1.99 4 -2.98 4 -4 4 C-4.33 4.66 -4.66 5.32 -5 6 C-7.64860427 6.59355614 -10.29197322 6.74209269 -13 7 C-4.25 0 -4.25 0 0 0 Z " fill="#F4E5E1" transform="translate(533,602)"/>
<path d="M0 0 C0.66 0.33 1.32 0.66 2 1 C-1.27429093 5.33362035 -3.76986166 8.02416996 -9 10 C-9.66 9.67 -10.32 9.34 -11 9 C-7.37 6.03 -3.74 3.06 0 0 Z " fill="#F2E2E1" transform="translate(574,572)"/>
<path d="M0 0 C0 0.33 0 0.66 0 1 C-0.84884766 1.16435547 -0.84884766 1.16435547 -1.71484375 1.33203125 C-2.81505859 1.56986328 -2.81505859 1.56986328 -3.9375 1.8125 C-4.66839844 1.96332031 -5.39929688 2.11414063 -6.15234375 2.26953125 C-6.76207031 2.51058594 -7.37179687 2.75164062 -8 3 C-8.33 3.99 -8.66 4.98 -9 6 C-9.99 6 -10.98 6 -12 6 C-11.66411682 3.48087612 -11.42645046 2.32803881 -9.375 0.75 C-6.1989627 -0.25295915 -3.30771122 -0.12721966 0 0 Z " fill="#3D3D3D" transform="translate(353,283)"/>
<path d="M0 0 C1.98283479 1.11852219 3.96117623 2.24501325 5.9375 3.375 C7.59072266 4.31472656 7.59072266 4.31472656 9.27734375 5.2734375 C12 7 12 7 13 9 C11.35 9 9.7 9 8 9 C8 8.34 8 7.68 8 7 C7.34 7 6.68 7 6 7 C6 6.34 6 5.68 6 5 C5.195625 4.731875 4.39125 4.46375 3.5625 4.1875 C2.716875 3.795625 1.87125 3.40375 1 3 C0.67 2.01 0.34 1.02 0 0 Z " fill="#D4B5B3" transform="translate(483,178)"/>
<path d="M0 0 C4.3177458 0.50797009 8.03302114 1.19682779 12 3 C12 3.99 12 4.98 12 6 C7.76570244 4.68938409 3.92592596 3.05643741 0 1 C0 0.67 0 0.34 0 0 Z " fill="#F8E1DF" transform="translate(507,74)"/>
<path d="M0 0 C3 1 3 1 4 3 C4.66 3.33 5.32 3.66 6 4 C6 6.66666667 6 9.33333333 6 12 C2.82781157 8.37464179 1.57097403 4.48849722 0 0 Z " fill="#D2B7B5" transform="translate(206,422)"/>
<path d="M0 0 C-0.33 0.515625 -0.66 1.03125 -1 1.5625 C-2.32010877 4.78026512 -2.13242105 7.5570528 -2 11 C-2.99 11 -3.98 11 -5 11 C-5.36637589 4.64948454 -5.36637589 4.64948454 -3.625 1.5625 C-2 0 -2 0 0 0 Z " fill="#E1DFE0" transform="translate(313,337)"/>
<path d="M0 0 C2.64 1.98 5.28 3.96 8 6 C7.01 6.66 6.02 7.32 5 8 C4.01 7.67 3.02 7.34 2 7 C0.8125 3.4375 0.8125 3.4375 0 0 Z " fill="#F8E4E2" transform="translate(194,573)"/>
<path d="M0 0 C1.5 1.375 1.5 1.375 3 3 C3 3.66 3 4.32 3 5 C1.35 5.66 -0.3 6.32 -2 7 C-2.66 6.01 -3.32 5.02 -4 4 C-3.34 4 -2.68 4 -2 4 C-1.34 2.68 -0.68 1.36 0 0 Z " fill="#201F20" transform="translate(1030,466)"/>
<path d="M0 0 C3.67033927 3.27708863 5.69281189 6.71522208 8 11 C7.01 10.67 6.02 10.34 5 10 C5 9.34 5 8.68 5 8 C3.68 8 2.36 8 1 8 C1.33 7.01 1.66 6.02 2 5 C1.34 4.67 0.68 4.34 0 4 C0 2.68 0 1.36 0 0 Z " fill="#982E34" transform="translate(219,448)"/>
<path d="M0 0 C1.4540625 0.495 1.4540625 0.495 2.9375 1 C5.62149574 2.05173363 5.62149574 2.05173363 7 2 C7.33 3.98 7.66 5.96 8 8 C7.01 8 6.02 8 5 8 C3.61328125 6.25 3.61328125 6.25 2.3125 4 C1.87550781 3.2575 1.43851563 2.515 0.98828125 1.75 C0.66214844 1.1725 0.33601562 0.595 0 0 Z " fill="#9C2A32" transform="translate(535,223)"/>
<path d="M0 0 C4.49797113 1.68673918 8.72886302 3.81673892 13 6 C10.34501768 7.0169313 9.30844625 7.13022151 6.640625 6.00390625 C5.85171875 5.52824219 5.0628125 5.05257812 4.25 4.5625 C3.45078125 4.08941406 2.6515625 3.61632812 1.828125 3.12890625 C1.22484375 2.75636719 0.6215625 2.38382813 0 2 C0 1.34 0 0.68 0 0 Z " fill="#F8DDDC" transform="translate(233,601)"/>
<path d="M0 0 C1 2 1 2 0.375 4 C-1.42933178 6.62448259 -2.95773445 7.18378241 -6 8 C-6.99 7.67 -7.98 7.34 -9 7 C-6.03 4.69 -3.06 2.38 0 0 Z " fill="#5D262A" transform="translate(507,494)"/>
<path d="M0 0 C4.08963819 2.28538605 7.46362104 4.95706926 11 8 C10.01 8.495 10.01 8.495 9 9 C8.01 8.67 7.02 8.34 6 8 C6 7.34 6 6.68 6 6 C4.68 5.67 3.36 5.34 2 5 C2 4.01 2 3.02 2 2 C1.34 2 0.68 2 0 2 C0 1.34 0 0.68 0 0 Z " fill="#962C32" transform="translate(251,487)"/>
<path d="M0 0 C2.96404505 2.80804268 5.44499019 5.18315774 7 9 C4.525 8.01 4.525 8.01 2 7 C2 6.01 2 5.02 2 4 C1.34 4 0.68 4 0 4 C0 2.68 0 1.36 0 0 Z " fill="#972B32" transform="translate(227,460)"/>
<path d="M0 0 C0.66 0 1.32 0 2 0 C2 0.99 2 1.98 2 3 C2.66 3 3.32 3 4 3 C4.33 4.32 4.66 5.64 5 7 C5.66 7 6.32 7 7 7 C7 8.65 7 10.3 7 12 C0 3.55172414 0 3.55172414 0 0 Z " fill="#D5BABA" transform="translate(215,439)"/>
<path d="M0 0 C0.66 0 1.32 0 2 0 C0.6062718 4.43458973 -1.60582235 6.87378374 -5 10 C-5 8.02 -5 6.04 -5 4 C-4.01 4.33 -3.02 4.66 -2 5 C-1.34 3.35 -0.68 1.7 0 0 Z " fill="#5A2426" transform="translate(223,232)"/>
<path d="M0 0 C2.94678433 2.94678433 4.32041919 5.24093818 6 9 C6 9.66 6 10.32 6 11 C3.525 10.01 3.525 10.01 1 9 C0.67 6.03 0.34 3.06 0 0 Z " fill="#9D3539" transform="translate(645,205)"/>
<path d="M0 0 C1.32 0 2.64 0 4 0 C4.28875 0.7425 4.5775 1.485 4.875 2.25 C5.82302644 4.56739797 6.84845911 6.77917115 8 9 C7.01 9.495 7.01 9.495 6 10 C4.02 6.7 2.04 3.4 0 0 Z " fill="#FAE1E0" transform="translate(624,170)"/>
<path d="M0 0 C1.93833996 0.08715017 3.8757429 0.19532964 5.8125 0.3125 C7.43091797 0.39951172 7.43091797 0.39951172 9.08203125 0.48828125 C12.17497517 1.03068507 13.13022903 1.55289624 15 4 C9.76119922 3.44854729 5.02649303 2.57077907 0 1 C0 0.67 0 0.34 0 0 Z " fill="#9F4347" transform="translate(303,630)"/>
<path d="M0 0 C1.48285242 0.95262034 2.96118201 1.91228405 4.4375 2.875 C5.67306641 3.67550781 5.67306641 3.67550781 6.93359375 4.4921875 C9 6 9 6 10 8 C6.6108429 7.39479338 4.69569871 6.08699255 2 4 C1.01 3.67 0.02 3.34 -1 3 C-0.67 2.01 -0.34 1.02 0 0 Z " fill="#942C32" transform="translate(262,496)"/>
<path d="M0 0 C0 2.62113708 -0.31292445 4.50935112 -1 7 C-3.31 7.66 -5.62 8.32 -8 9 C-7.04270084 7.87411986 -6.08412105 6.7493285 -5.125 5.625 C-4.59132812 4.99851563 -4.05765625 4.37203125 -3.5078125 3.7265625 C-2.38567993 2.44163349 -1.20628025 1.20628025 0 0 Z " fill="#5E2C2C" transform="translate(182,126)"/>
<path d="M0 0 C3.49928164 2.33285443 3.6329098 3.20795069 4.6875 7.125 C4.93886719 8.03507813 5.19023437 8.94515625 5.44921875 9.8828125 C5.72185547 10.93082031 5.72185547 10.93082031 6 12 C3.20766929 9.44722581 2.51032394 7.77639718 2 4 C1.34 4 0.68 4 0 4 C0 2.68 0 1.36 0 0 Z " fill="#881D1D" transform="translate(378,575)"/>
<path d="M0 0 C1.65 0 3.3 0 5 0 C5.66 1.32 6.32 2.64 7 4 C6.01 4.33 5.02 4.66 4 5 C1.3125 3.5625 1.3125 3.5625 -1 2 C-0.67 1.34 -0.34 0.68 0 0 Z " fill="#FAE9EA" transform="translate(540,90)"/>
<path d="M0 0 C4.96916636 0.51405169 9.29026351 1.23384882 14 3 C14 3.33 14 3.66 14 4 C8.34605369 4.34615998 4.96993194 3.43425238 0 1 C0 0.67 0 0.34 0 0 Z " fill="#952930" transform="translate(454,57)"/>
<path d="M0 0 C-0.33 0.99 -0.66 1.98 -1 3 C-3.06640625 3.94921875 -3.06640625 3.94921875 -5.5625 4.6875 C-6.38878906 4.93886719 -7.21507812 5.19023438 -8.06640625 5.44921875 C-8.70449219 5.63097656 -9.34257812 5.81273437 -10 6 C-10 5.34 -10 4.68 -10 4 C-8.71086513 3.32845067 -7.41859796 2.66291141 -6.125 2 C-5.40570313 1.62875 -4.68640625 1.2575 -3.9453125 0.875 C-2 0 -2 0 0 0 Z " fill="#5E282B" transform="translate(472,518)"/>
<path d="M0 0 C3.7952131 1.49097658 5.61042731 3.75700849 8 7 C7.01 7.495 7.01 7.495 6 8 C6 7.34 6 6.68 6 6 C5.38125 5.690625 4.7625 5.38125 4.125 5.0625 C2.75 4.375 1.375 3.6875 0 3 C0 2.01 0 1.02 0 0 Z " fill="#D0B3B2" transform="translate(514,202)"/>
<path d="M0 0 C3.67033927 3.27708863 5.69281189 6.71522208 8 11 C4.54696453 9.84898818 3.27841949 8.81005071 1 6 C0.25 2.75 0.25 2.75 0 0 Z " fill="#973032" transform="translate(626,174)"/>
<path d="M0 0 C4 0 4 0 5.8125 1.75 C7 4 7 4 6 8 C4.02 5.36 2.04 2.72 0 0 Z " fill="#FAE4E1" transform="translate(608,150)"/>
<path d="M0 0 C0 0.66 0 1.32 0 2 C-4.02992782 1.44687265 -8.02022924 0.8441938 -12 0 C-7.89962722 -3.07527959 -4.53236941 -1.35971082 0 0 Z " fill="#F5D5D6" transform="translate(466,57)"/>
<path d="M0 0 C2.64465038 3.1254959 3.84414715 6.08788267 5 10 C4.34 10 3.68 10 3 10 C2.67 9.01 2.34 8.02 2 7 C1.34 6.67 0.68 6.34 0 6 C0 4.02 0 2.04 0 0 Z " fill="#FAE2E2" transform="translate(114,470)"/>
<path d="M0 0 C0.99 0.33 1.98 0.66 3 1 C2.1875 2.9375 2.1875 2.9375 1 5 C0.01 5.33 -0.98 5.66 -2 6 C-2 2 -2 2 0 0 Z " fill="#1C1B1C" transform="translate(811,453)"/>
<path d="M0 0 C0.33 0 0.66 0 1 0 C1 2.31 1 4.62 1 7 C-0.32 7.33 -1.64 7.66 -3 8 C-1.125 1.125 -1.125 1.125 0 0 Z " fill="#141213" transform="translate(357,287)"/>
<path d="M0 0 C0.33 0.66 0.66 1.32 1 2 C0.00390625 3.9453125 0.00390625 3.9453125 -1.4375 6.125 C-1.91058594 6.84945312 -2.38367188 7.57390625 -2.87109375 8.3203125 C-3.24363281 8.87460938 -3.61617187 9.42890625 -4 10 C-4.99 9.67 -5.98 9.34 -7 9 C-4.69 6.03 -2.38 3.06 0 0 Z " fill="#B4A5A5" transform="translate(232,223)"/>
<path d="M0 0 C0.99 0 1.98 0 3 0 C2.1875 2.4375 2.1875 2.4375 1 5 C0.01 5.33 -0.98 5.66 -2 6 C-2.33 6.66 -2.66 7.32 -3 8 C-3.66 7.67 -4.32 7.34 -5 7 C-4.24172908 5.82512964 -3.46792245 4.66027408 -2.6875 3.5 C-2.25824219 2.8503125 -1.82898438 2.200625 -1.38671875 1.53125 C-0.70029297 0.77328125 -0.70029297 0.77328125 0 0 Z " fill="#9F3137" transform="translate(144,169)"/>
<path d="M0 0 C2.64 0 5.28 0 8 0 C8.33 1.32 8.66 2.64 9 4 C6.03 3.01 3.06 2.02 0 1 C0 0.67 0 0.34 0 0 Z " fill="#972F32" transform="translate(453,163)"/>
<path d="M0 0 C2.625 0.375 2.625 0.375 5 1 C3.35 2.65 1.7 4.3 0 6 C-0.66 4.68 -1.32 3.36 -2 2 C-1.34 1.34 -0.68 0.68 0 0 Z " fill="#F4E8E6" transform="translate(189,115)"/>
<path d="M0 0 C3 1 3 1 4.75 4.375 C6 8 6 8 5 11 C4.16426177 9.35538655 3.33147118 7.70927487 2.5 6.0625 C2.0359375 5.14597656 1.571875 4.22945312 1.09375 3.28515625 C0 1 0 1 0 0 Z " fill="#961E22" transform="translate(346,57)"/>
<path d="M0 0 C0 0.66 0 1.32 0 2 C-1.98 2.99 -3.96 3.98 -6 5 C-7.32 4.01 -8.64 3.02 -10 2 C-8.7090864 1.66376204 -7.41723903 1.33110751 -6.125 1 C-5.40570313 0.814375 -4.68640625 0.62875 -3.9453125 0.4375 C-2 0 -2 0 0 0 Z " fill="#672E30" transform="translate(310,57)"/>
<path d="M0 0 C1.98 0 3.96 0 6 0 C5.67 1.32 5.34 2.64 5 4 C3.02 4 1.04 4 -1 4 C-0.34 3.34 0.32 2.68 1 2 C0.67 1.34 0.34 0.68 0 0 Z " fill="#2F2F2F" transform="translate(351,352)"/>
<path d="M0 0 C0.33 1.32 0.66 2.64 1 4 C0.34 4 -0.32 4 -1 4 C-1.33 5.32 -1.66 6.64 -2 8 C-2.99 8 -3.98 8 -5 8 C-3.35 5.36 -1.7 2.72 0 0 Z " fill="#9B3034" transform="translate(132,187)"/>
<path d="M0 0 C2.475 0.495 2.475 0.495 5 1 C4.67 1.99 4.34 2.98 4 4 C4.66 4.33 5.32 4.66 6 5 C5.34 5.66 4.68 6.32 4 7 C0 2.25 0 2.25 0 0 Z " fill="#F8E5E3" transform="translate(617,160)"/>
<path d="M0 0 C2.97 1.65 5.94 3.3 9 5 C8.67 5.66 8.34 6.32 8 7 C7.01 6.67 6.02 6.34 5 6 C5 5.34 5 4.68 5 4 C4.360625 3.896875 3.72125 3.79375 3.0625 3.6875 C2.381875 3.460625 1.70125 3.23375 1 3 C0.67 2.01 0.34 1.02 0 0 Z " fill="#972F33" transform="translate(531,87)"/>
<path d="M0 0 C0.66 0.33 1.32 0.66 2 1 C-0.31 3.31 -2.62 5.62 -5 8 C-5.99 7.34 -6.98 6.68 -8 6 C-7.05125 5.38125 -6.1025 4.7625 -5.125 4.125 C-2.05554891 2.18029031 -2.05554891 2.18029031 0 0 Z " fill="#1F1F21" transform="translate(344,456)"/>
<path d="M0 0 C4.42857143 5.14285714 4.42857143 5.14285714 5 9 C4.34 9 3.68 9 3 9 C3 8.34 3 7.68 3 7 C2.34 7 1.68 7 1 7 C0.67 4.69 0.34 2.38 0 0 Z " fill="#983237" transform="translate(214,439)"/>
<path d="M0 0 C0.66 0.99 1.32 1.98 2 3 C0.02 4.32 -1.96 5.64 -4 7 C-4.66 6.67 -5.32 6.34 -6 6 C-4.02 4.02 -2.04 2.04 0 0 Z " fill="#272627" transform="translate(421,342)"/>
<path d="M0 0 C0.66 0 1.32 0 2 0 C2 1.65 2 3.3 2 5 C1.01 5.495 1.01 5.495 0 6 C-0.66 5.67 -1.32 5.34 -2 5 C-1.125 1.125 -1.125 1.125 0 0 Z " fill="#141213" transform="translate(445,337)"/>
<path d="M0 0 C0.66 0 1.32 0 2 0 C2.28875 0.969375 2.5775 1.93875 2.875 2.9375 C3.64214682 6.10664203 3.64214682 6.10664203 6 7 C5.67 7.99 5.34 8.98 5 10 C4.34 10 3.68 10 3 10 C2.01 6.7 1.02 3.4 0 0 Z " fill="#FBE4E3" transform="translate(661,238)"/>
<path d="M0 0 C2.16874252 0.50603992 3.99967627 0.99983813 6 2 C6.625 4.5625 6.625 4.5625 7 7 C5.83040013 6.02433888 4.66438823 5.044375 3.5 4.0625 C2.8503125 3.51722656 2.200625 2.97195312 1.53125 2.41015625 C1.0259375 1.94480469 0.520625 1.47945312 0 1 C0 0.67 0 0.34 0 0 Z " fill="#FADEDD" transform="translate(597,138)"/>
<path d="M0 0 C1.65 0 3.3 0 5 0 C0.25 4.875 0.25 4.875 -2 6 C-1.34 4.02 -0.68 2.04 0 0 Z " fill="#F9E8E8" transform="translate(197,109)"/>
<path d="M0 0 C0.33 0.66 0.66 1.32 1 2 C1.928125 2.2165625 1.928125 2.2165625 2.875 2.4375 C5.36710392 3.09717457 6.3329446 4.08288629 8 6 C7.67 6.66 7.34 7.32 7 8 C4.36 6.02 1.72 4.04 -1 2 C-0.67 1.34 -0.34 0.68 0 0 Z " fill="#F9E0DC" transform="translate(562,105)"/>
<path d="M0 0 C0.66 0.33 1.32 0.66 2 1 C1.67 2.32 1.34 3.64 1 5 C-0.32 5.33 -1.64 5.66 -3 6 C-3.66 5.01 -4.32 4.02 -5 3 C-2.625 1.4375 -2.625 1.4375 0 0 Z " fill="#682B2F" transform="translate(233,88)"/>
<path d="M0 0 C0.66 0.33 1.32 0.66 2 1 C1.01 2.485 1.01 2.485 0 4 C-2.97 3.505 -2.97 3.505 -6 3 C-3 1 -3 1 0 0 Z " fill="#F8EAE9" transform="translate(481,625)"/>
<path d="M0 0 C6.0546875 -0.1953125 6.0546875 -0.1953125 8 0 C8.66 0.66 9.32 1.32 10 2 C6.06329512 3.31223496 3.87511856 2.24296256 0 1 C0 0.67 0 0.34 0 0 Z " fill="#9C343A" transform="translate(293,627)"/>
<path d="M0 0 C1.99097846 2.98646769 2.94124926 5.59687262 4 9 C3.34 9 2.68 9 2 9 C0 7 0 7 -1 5 C-0.72057545 3.32345271 -0.39171753 1.65391846 0 0 Z " fill="#F5DADA" transform="translate(107,453)"/>
<path d="M0 0 C0.99 0.495 0.99 0.495 2 1 C2 2.32 2 3.64 2 5 C2.66 5 3.32 5 4 5 C4.33 6.32 4.66 7.64 5 9 C3.68 8.67 2.36 8.34 1 8 C0.67 5.36 0.34 2.72 0 0 Z " fill="#731717" transform="translate(387,141)"/>
</svg>
